<?xml version="1.0" encoding="utf-8" standalone="no"?>
<!DOCTYPE svg PUBLIC "-//W3C//DTD SVG 1.1//EN"
  "http://www.w3.org/Graphics/SVG/1.1/DTD/svg11.dtd">
<!-- Created with matplotlib (http://matplotlib.org/) -->
<svg height="504pt" version="1.1" viewBox="0 0 576 504" width="576pt" xmlns="http://www.w3.org/2000/svg" xmlns:xlink="http://www.w3.org/1999/xlink">
 <defs>
  <style type="text/css">
*{stroke-linecap:butt;stroke-linejoin:round;}
  </style>
 </defs>
 <g id="figure_1">
  <g id="patch_1">
   <path d="M 0 504 
L 576 504 
L 576 0 
L 0 0 
z
" style="fill:#ffffff;"/>
  </g>
  <g id="axes_1">
   <g id="patch_2">
    <path d="M 97.44 426.56 
L 550.9975 426.56 
L 550.9975 23.209412 
L 97.44 23.209412 
z
" style="fill:#ffffff;"/>
   </g>
   <g id="matplotlib.axis_1">
    <g id="xtick_1">
     <g id="line2d_1"/>
     <g id="text_1">
      <!-- −5 -->
      <defs>
       <path d="M 52.828125 31.203125 
L 5.5625 31.203125 
L 5.5625 39.40625 
L 52.828125 39.40625 
z
" id="ArialMT-2212"/>
       <path d="M 4.15625 18.75 
L 13.375 19.53125 
Q 14.40625 12.796875 18.140625 9.390625 
Q 21.875 6 27.15625 6 
Q 33.5 6 37.890625 10.78125 
Q 42.28125 15.578125 42.28125 23.484375 
Q 42.28125 31 38.0625 35.34375 
Q 33.84375 39.703125 27 39.703125 
Q 22.75 39.703125 19.328125 37.765625 
Q 15.921875 35.84375 13.96875 32.765625 
L 5.71875 33.84375 
L 12.640625 70.609375 
L 48.25 70.609375 
L 48.25 62.203125 
L 19.671875 62.203125 
L 15.828125 42.96875 
Q 22.265625 47.46875 29.34375 47.46875 
Q 38.71875 47.46875 45.15625 40.96875 
Q 51.609375 34.46875 51.609375 24.265625 
Q 51.609375 14.546875 45.953125 7.46875 
Q 39.0625 -1.21875 27.15625 -1.21875 
Q 17.390625 -1.21875 11.203125 4.25 
Q 5.03125 9.71875 4.15625 18.75 
z
" id="ArialMT-35"/>
      </defs>
      <g style="fill:#262626;" transform="translate(86.038438 447.875625)scale(0.2 -0.2)">
       <use xlink:href="#ArialMT-2212"/>
       <use x="58.398438" xlink:href="#ArialMT-35"/>
      </g>
     </g>
    </g>
    <g id="xtick_2">
     <g id="line2d_2"/>
     <g id="text_2">
      <!-- −3 -->
      <defs>
       <path d="M 4.203125 18.890625 
L 12.984375 20.0625 
Q 14.5 12.59375 18.140625 9.296875 
Q 21.78125 6 27 6 
Q 33.203125 6 37.46875 10.296875 
Q 41.75 14.59375 41.75 20.953125 
Q 41.75 27 37.796875 30.921875 
Q 33.84375 34.859375 27.734375 34.859375 
Q 25.25 34.859375 21.53125 33.890625 
L 22.515625 41.609375 
Q 23.390625 41.5 23.921875 41.5 
Q 29.546875 41.5 34.03125 44.421875 
Q 38.53125 47.359375 38.53125 53.46875 
Q 38.53125 58.296875 35.25 61.46875 
Q 31.984375 64.65625 26.8125 64.65625 
Q 21.6875 64.65625 18.265625 61.421875 
Q 14.84375 58.203125 13.875 51.765625 
L 5.078125 53.328125 
Q 6.6875 62.15625 12.390625 67.015625 
Q 18.109375 71.875 26.609375 71.875 
Q 32.46875 71.875 37.390625 69.359375 
Q 42.328125 66.84375 44.9375 62.5 
Q 47.5625 58.15625 47.5625 53.265625 
Q 47.5625 48.640625 45.0625 44.828125 
Q 42.578125 41.015625 37.703125 38.765625 
Q 44.046875 37.3125 47.5625 32.6875 
Q 51.078125 28.078125 51.078125 21.140625 
Q 51.078125 11.765625 44.234375 5.25 
Q 37.40625 -1.265625 26.953125 -1.265625 
Q 17.53125 -1.265625 11.296875 4.34375 
Q 5.078125 9.96875 4.203125 18.890625 
z
" id="ArialMT-33"/>
      </defs>
      <g style="fill:#262626;" transform="translate(176.749938 447.875625)scale(0.2 -0.2)">
       <use xlink:href="#ArialMT-2212"/>
       <use x="58.398438" xlink:href="#ArialMT-33"/>
      </g>
     </g>
    </g>
    <g id="xtick_3">
     <g id="line2d_3"/>
     <g id="text_3">
      <!-- −1 -->
      <defs>
       <path d="M 37.25 0 
L 28.46875 0 
L 28.46875 56 
Q 25.296875 52.984375 20.140625 49.953125 
Q 14.984375 46.921875 10.890625 45.40625 
L 10.890625 53.90625 
Q 18.265625 57.375 23.78125 62.296875 
Q 29.296875 67.234375 31.59375 71.875 
L 37.25 71.875 
z
" id="ArialMT-31"/>
      </defs>
      <g style="fill:#262626;" transform="translate(267.461438 447.875625)scale(0.2 -0.2)">
       <use xlink:href="#ArialMT-2212"/>
       <use x="58.398438" xlink:href="#ArialMT-31"/>
      </g>
     </g>
    </g>
    <g id="xtick_4">
     <g id="line2d_4"/>
     <g id="text_4">
      <!-- 1 -->
      <g style="fill:#262626;" transform="translate(364.013563 447.875625)scale(0.2 -0.2)">
       <use xlink:href="#ArialMT-31"/>
      </g>
     </g>
    </g>
    <g id="xtick_5">
     <g id="line2d_5"/>
     <g id="text_5">
      <!-- 3 -->
      <g style="fill:#262626;" transform="translate(454.725063 447.875625)scale(0.2 -0.2)">
       <use xlink:href="#ArialMT-33"/>
      </g>
     </g>
    </g>
    <g id="xtick_6">
     <g id="line2d_6"/>
     <g id="text_6">
      <!-- 5 -->
      <g style="fill:#262626;" transform="translate(545.436563 447.875625)scale(0.2 -0.2)">
       <use xlink:href="#ArialMT-35"/>
      </g>
     </g>
    </g>
    <g id="text_7">
     <!-- Difference in Dots (ΔDots) -->
     <defs>
      <path d="M 7.71875 0 
L 7.71875 71.578125 
L 32.375 71.578125 
Q 40.71875 71.578125 45.125 70.5625 
Q 51.265625 69.140625 55.609375 65.4375 
Q 61.28125 60.640625 64.078125 53.1875 
Q 66.890625 45.75 66.890625 36.1875 
Q 66.890625 28.03125 64.984375 21.734375 
Q 63.09375 15.4375 60.109375 11.296875 
Q 57.125 7.171875 53.578125 4.796875 
Q 50.046875 2.4375 45.046875 1.21875 
Q 40.046875 0 33.546875 0 
z
M 17.1875 8.453125 
L 32.46875 8.453125 
Q 39.546875 8.453125 43.578125 9.765625 
Q 47.609375 11.078125 50 13.484375 
Q 53.375 16.84375 55.25 22.53125 
Q 57.125 28.21875 57.125 36.328125 
Q 57.125 47.5625 53.4375 53.59375 
Q 49.75 59.625 44.484375 61.671875 
Q 40.671875 63.140625 32.234375 63.140625 
L 17.1875 63.140625 
z
" id="ArialMT-44"/>
      <path d="M 6.640625 61.46875 
L 6.640625 71.578125 
L 15.4375 71.578125 
L 15.4375 61.46875 
z
M 6.640625 0 
L 6.640625 51.859375 
L 15.4375 51.859375 
L 15.4375 0 
z
" id="ArialMT-69"/>
      <path d="M 8.6875 0 
L 8.6875 45.015625 
L 0.921875 45.015625 
L 0.921875 51.859375 
L 8.6875 51.859375 
L 8.6875 57.375 
Q 8.6875 62.59375 9.625 65.140625 
Q 10.890625 68.5625 14.078125 70.671875 
Q 17.28125 72.796875 23.046875 72.796875 
Q 26.765625 72.796875 31.25 71.921875 
L 29.9375 64.265625 
Q 27.203125 64.75 24.75 64.75 
Q 20.75 64.75 19.09375 63.03125 
Q 17.4375 61.328125 17.4375 56.640625 
L 17.4375 51.859375 
L 27.546875 51.859375 
L 27.546875 45.015625 
L 17.4375 45.015625 
L 17.4375 0 
z
" id="ArialMT-66"/>
      <path d="M 42.09375 16.703125 
L 51.171875 15.578125 
Q 49.03125 7.625 43.21875 3.21875 
Q 37.40625 -1.171875 28.375 -1.171875 
Q 17 -1.171875 10.328125 5.828125 
Q 3.65625 12.84375 3.65625 25.484375 
Q 3.65625 38.578125 10.390625 45.796875 
Q 17.140625 53.03125 27.875 53.03125 
Q 38.28125 53.03125 44.875 45.953125 
Q 51.46875 38.875 51.46875 26.03125 
Q 51.46875 25.25 51.421875 23.6875 
L 12.75 23.6875 
Q 13.234375 15.140625 17.578125 10.59375 
Q 21.921875 6.0625 28.421875 6.0625 
Q 33.25 6.0625 36.671875 8.59375 
Q 40.09375 11.140625 42.09375 16.703125 
z
M 13.234375 30.90625 
L 42.1875 30.90625 
Q 41.609375 37.453125 38.875 40.71875 
Q 34.671875 45.796875 27.984375 45.796875 
Q 21.921875 45.796875 17.796875 41.75 
Q 13.671875 37.703125 13.234375 30.90625 
z
" id="ArialMT-65"/>
      <path d="M 6.5 0 
L 6.5 51.859375 
L 14.40625 51.859375 
L 14.40625 44 
Q 17.4375 49.515625 20 51.265625 
Q 22.5625 53.03125 25.640625 53.03125 
Q 30.078125 53.03125 34.671875 50.203125 
L 31.640625 42.046875 
Q 28.421875 43.953125 25.203125 43.953125 
Q 22.3125 43.953125 20.015625 42.21875 
Q 17.71875 40.484375 16.75 37.40625 
Q 15.28125 32.71875 15.28125 27.15625 
L 15.28125 0 
z
" id="ArialMT-72"/>
      <path d="M 6.59375 0 
L 6.59375 51.859375 
L 14.5 51.859375 
L 14.5 44.484375 
Q 20.21875 53.03125 31 53.03125 
Q 35.6875 53.03125 39.625 51.34375 
Q 43.5625 49.65625 45.515625 46.921875 
Q 47.46875 44.1875 48.25 40.4375 
Q 48.734375 37.984375 48.734375 31.890625 
L 48.734375 0 
L 39.9375 0 
L 39.9375 31.546875 
Q 39.9375 36.921875 38.90625 39.578125 
Q 37.890625 42.234375 35.28125 43.8125 
Q 32.671875 45.40625 29.15625 45.40625 
Q 23.53125 45.40625 19.453125 41.84375 
Q 15.375 38.28125 15.375 28.328125 
L 15.375 0 
z
" id="ArialMT-6e"/>
      <path d="M 40.4375 19 
L 49.078125 17.875 
Q 47.65625 8.9375 41.8125 3.875 
Q 35.984375 -1.171875 27.484375 -1.171875 
Q 16.84375 -1.171875 10.375 5.78125 
Q 3.90625 12.75 3.90625 25.734375 
Q 3.90625 34.125 6.6875 40.421875 
Q 9.46875 46.734375 15.15625 49.875 
Q 20.84375 53.03125 27.546875 53.03125 
Q 35.984375 53.03125 41.359375 48.75 
Q 46.734375 44.484375 48.25 36.625 
L 39.703125 35.296875 
Q 38.484375 40.53125 35.375 43.15625 
Q 32.28125 45.796875 27.875 45.796875 
Q 21.234375 45.796875 17.078125 41.03125 
Q 12.9375 36.28125 12.9375 25.984375 
Q 12.9375 15.53125 16.9375 10.796875 
Q 20.953125 6.0625 27.390625 6.0625 
Q 32.5625 6.0625 36.03125 9.234375 
Q 39.5 12.40625 40.4375 19 
z
" id="ArialMT-63"/>
      <path id="ArialMT-20"/>
      <path d="M 3.328125 25.921875 
Q 3.328125 40.328125 11.328125 47.265625 
Q 18.015625 53.03125 27.640625 53.03125 
Q 38.328125 53.03125 45.109375 46.015625 
Q 51.90625 39.015625 51.90625 26.65625 
Q 51.90625 16.65625 48.90625 10.90625 
Q 45.90625 5.171875 40.15625 2 
Q 34.421875 -1.171875 27.640625 -1.171875 
Q 16.75 -1.171875 10.03125 5.8125 
Q 3.328125 12.796875 3.328125 25.921875 
z
M 12.359375 25.921875 
Q 12.359375 15.96875 16.703125 11.015625 
Q 21.046875 6.0625 27.640625 6.0625 
Q 34.1875 6.0625 38.53125 11.03125 
Q 42.875 16.015625 42.875 26.21875 
Q 42.875 35.84375 38.5 40.796875 
Q 34.125 45.75 27.640625 45.75 
Q 21.046875 45.75 16.703125 40.8125 
Q 12.359375 35.890625 12.359375 25.921875 
z
" id="ArialMT-6f"/>
      <path d="M 25.78125 7.859375 
L 27.046875 0.09375 
Q 23.34375 -0.6875 20.40625 -0.6875 
Q 15.625 -0.6875 12.984375 0.828125 
Q 10.359375 2.34375 9.28125 4.8125 
Q 8.203125 7.28125 8.203125 15.1875 
L 8.203125 45.015625 
L 1.765625 45.015625 
L 1.765625 51.859375 
L 8.203125 51.859375 
L 8.203125 64.703125 
L 16.9375 69.96875 
L 16.9375 51.859375 
L 25.78125 51.859375 
L 25.78125 45.015625 
L 16.9375 45.015625 
L 16.9375 14.703125 
Q 16.9375 10.9375 17.40625 9.859375 
Q 17.875 8.796875 18.921875 8.15625 
Q 19.96875 7.515625 21.921875 7.515625 
Q 23.390625 7.515625 25.78125 7.859375 
z
" id="ArialMT-74"/>
      <path d="M 3.078125 15.484375 
L 11.765625 16.84375 
Q 12.5 11.625 15.84375 8.84375 
Q 19.1875 6.0625 25.203125 6.0625 
Q 31.25 6.0625 34.171875 8.515625 
Q 37.109375 10.984375 37.109375 14.3125 
Q 37.109375 17.28125 34.515625 19 
Q 32.71875 20.171875 25.53125 21.96875 
Q 15.875 24.421875 12.140625 26.203125 
Q 8.40625 27.984375 6.46875 31.125 
Q 4.546875 34.28125 4.546875 38.09375 
Q 4.546875 41.546875 6.125 44.5 
Q 7.71875 47.46875 10.453125 49.421875 
Q 12.5 50.921875 16.03125 51.96875 
Q 19.578125 53.03125 23.640625 53.03125 
Q 29.734375 53.03125 34.34375 51.265625 
Q 38.96875 49.515625 41.15625 46.5 
Q 43.359375 43.5 44.1875 38.484375 
L 35.59375 37.3125 
Q 35.015625 41.3125 32.203125 43.546875 
Q 29.390625 45.796875 24.265625 45.796875 
Q 18.21875 45.796875 15.625 43.796875 
Q 13.03125 41.796875 13.03125 39.109375 
Q 13.03125 37.40625 14.109375 36.03125 
Q 15.1875 34.625 17.484375 33.6875 
Q 18.796875 33.203125 25.25 31.453125 
Q 34.578125 28.953125 38.25 27.359375 
Q 41.9375 25.78125 44.03125 22.75 
Q 46.140625 19.734375 46.140625 15.234375 
Q 46.140625 10.84375 43.578125 6.953125 
Q 41.015625 3.078125 36.171875 0.953125 
Q 31.34375 -1.171875 25.25 -1.171875 
Q 15.140625 -1.171875 9.84375 3.03125 
Q 4.546875 7.234375 3.078125 15.484375 
z
" id="ArialMT-73"/>
      <path d="M 23.390625 -21.046875 
Q 16.109375 -11.859375 11.078125 0.4375 
Q 6.0625 12.75 6.0625 25.921875 
Q 6.0625 37.546875 9.8125 48.1875 
Q 14.203125 60.546875 23.390625 72.796875 
L 29.6875 72.796875 
Q 23.78125 62.640625 21.875 58.296875 
Q 18.890625 51.5625 17.1875 44.234375 
Q 15.09375 35.109375 15.09375 25.875 
Q 15.09375 2.390625 29.6875 -21.046875 
z
" id="ArialMT-28"/>
      <path d="M -0.09375 0 
L 27.390625 71.578125 
L 37.59375 71.578125 
L 66.890625 0 
z
M 13.03125 8.453125 
L 52.828125 8.453125 
L 37.359375 49.21875 
Q 33.890625 58.40625 32.28125 64.0625 
Q 30.953125 57.421875 28.421875 50.390625 
z
" id="ArialMT-394"/>
      <path d="M 12.359375 -21.046875 
L 6.0625 -21.046875 
Q 20.65625 2.390625 20.65625 25.875 
Q 20.65625 35.0625 18.5625 44.09375 
Q 16.890625 51.421875 13.921875 58.15625 
Q 12.015625 62.546875 6.0625 72.796875 
L 12.359375 72.796875 
Q 21.53125 60.546875 25.921875 48.1875 
Q 29.6875 37.546875 29.6875 25.921875 
Q 29.6875 12.75 24.625 0.4375 
Q 19.578125 -11.859375 12.359375 -21.046875 
z
" id="ArialMT-29"/>
     </defs>
     <g style="fill:#262626;" transform="translate(149.99375 477.689688)scale(0.3 -0.3)">
      <use xlink:href="#ArialMT-44"/>
      <use x="72.216797" xlink:href="#ArialMT-69"/>
      <use x="94.433594" xlink:href="#ArialMT-66"/>
      <use x="122.201172" xlink:href="#ArialMT-66"/>
      <use x="149.984375" xlink:href="#ArialMT-65"/>
      <use x="205.599609" xlink:href="#ArialMT-72"/>
      <use x="238.900391" xlink:href="#ArialMT-65"/>
      <use x="294.515625" xlink:href="#ArialMT-6e"/>
      <use x="350.130859" xlink:href="#ArialMT-63"/>
      <use x="400.130859" xlink:href="#ArialMT-65"/>
      <use x="455.746094" xlink:href="#ArialMT-20"/>
      <use x="483.529297" xlink:href="#ArialMT-69"/>
      <use x="505.746094" xlink:href="#ArialMT-6e"/>
      <use x="561.361328" xlink:href="#ArialMT-20"/>
      <use x="589.144531" xlink:href="#ArialMT-44"/>
      <use x="661.361328" xlink:href="#ArialMT-6f"/>
      <use x="716.976562" xlink:href="#ArialMT-74"/>
      <use x="744.759766" xlink:href="#ArialMT-73"/>
      <use x="794.759766" xlink:href="#ArialMT-20"/>
      <use x="822.542969" xlink:href="#ArialMT-28"/>
      <use x="855.84375" xlink:href="#ArialMT-394"/>
      <use x="922.640625" xlink:href="#ArialMT-44"/>
      <use x="994.857422" xlink:href="#ArialMT-6f"/>
      <use x="1050.472656" xlink:href="#ArialMT-74"/>
      <use x="1078.255859" xlink:href="#ArialMT-73"/>
      <use x="1128.255859" xlink:href="#ArialMT-29"/>
     </g>
    </g>
   </g>
   <g id="matplotlib.axis_2">
    <g id="ytick_1">
     <g id="line2d_7"/>
     <g id="text_8">
      <!-- 0.00 -->
      <defs>
       <path d="M 4.15625 35.296875 
Q 4.15625 48 6.765625 55.734375 
Q 9.375 63.484375 14.515625 67.671875 
Q 19.671875 71.875 27.484375 71.875 
Q 33.25 71.875 37.59375 69.546875 
Q 41.9375 67.234375 44.765625 62.859375 
Q 47.609375 58.5 49.21875 52.21875 
Q 50.828125 45.953125 50.828125 35.296875 
Q 50.828125 22.703125 48.234375 14.96875 
Q 45.65625 7.234375 40.5 3 
Q 35.359375 -1.21875 27.484375 -1.21875 
Q 17.140625 -1.21875 11.234375 6.203125 
Q 4.15625 15.140625 4.15625 35.296875 
z
M 13.1875 35.296875 
Q 13.1875 17.671875 17.3125 11.828125 
Q 21.4375 6 27.484375 6 
Q 33.546875 6 37.671875 11.859375 
Q 41.796875 17.71875 41.796875 35.296875 
Q 41.796875 52.984375 37.671875 58.78125 
Q 33.546875 64.59375 27.390625 64.59375 
Q 21.34375 64.59375 17.71875 59.46875 
Q 13.1875 52.9375 13.1875 35.296875 
z
" id="ArialMT-30"/>
       <path d="M 9.078125 0 
L 9.078125 10.015625 
L 19.09375 10.015625 
L 19.09375 0 
z
" id="ArialMT-2e"/>
      </defs>
      <g style="fill:#262626;" transform="translate(51.518125 429.763395)scale(0.2 -0.2)">
       <use xlink:href="#ArialMT-30"/>
       <use x="55.615234" xlink:href="#ArialMT-2e"/>
       <use x="83.398438" xlink:href="#ArialMT-30"/>
       <use x="139.013672" xlink:href="#ArialMT-30"/>
      </g>
     </g>
    </g>
    <g id="ytick_2">
     <g id="line2d_8"/>
     <g id="text_9">
      <!-- 0.25 -->
      <defs>
       <path d="M 50.34375 8.453125 
L 50.34375 0 
L 3.03125 0 
Q 2.9375 3.171875 4.046875 6.109375 
Q 5.859375 10.9375 9.828125 15.625 
Q 13.8125 20.3125 21.34375 26.46875 
Q 33.015625 36.03125 37.109375 41.625 
Q 41.21875 47.21875 41.21875 52.203125 
Q 41.21875 57.421875 37.46875 61 
Q 33.734375 64.59375 27.734375 64.59375 
Q 21.390625 64.59375 17.578125 60.78125 
Q 13.765625 56.984375 13.71875 50.25 
L 4.6875 51.171875 
Q 5.609375 61.28125 11.65625 66.578125 
Q 17.71875 71.875 27.9375 71.875 
Q 38.234375 71.875 44.234375 66.15625 
Q 50.25 60.453125 50.25 52 
Q 50.25 47.703125 48.484375 43.546875 
Q 46.734375 39.40625 42.65625 34.8125 
Q 38.578125 30.21875 29.109375 22.21875 
Q 21.1875 15.578125 18.9375 13.203125 
Q 16.703125 10.84375 15.234375 8.453125 
z
" id="ArialMT-32"/>
      </defs>
      <g style="fill:#262626;" transform="translate(51.518125 330.902957)scale(0.2 -0.2)">
       <use xlink:href="#ArialMT-30"/>
       <use x="55.615234" xlink:href="#ArialMT-2e"/>
       <use x="83.398438" xlink:href="#ArialMT-32"/>
       <use x="139.013672" xlink:href="#ArialMT-35"/>
      </g>
     </g>
    </g>
    <g id="ytick_3">
     <g id="line2d_9"/>
     <g id="text_10">
      <!-- 0.50 -->
      <g style="fill:#262626;" transform="translate(51.518125 232.042518)scale(0.2 -0.2)">
       <use xlink:href="#ArialMT-30"/>
       <use x="55.615234" xlink:href="#ArialMT-2e"/>
       <use x="83.398438" xlink:href="#ArialMT-35"/>
       <use x="139.013672" xlink:href="#ArialMT-30"/>
      </g>
     </g>
    </g>
    <g id="ytick_4">
     <g id="line2d_10"/>
     <g id="text_11">
      <!-- 0.75 -->
      <defs>
       <path d="M 4.734375 62.203125 
L 4.734375 70.65625 
L 51.078125 70.65625 
L 51.078125 63.8125 
Q 44.234375 56.546875 37.515625 44.484375 
Q 30.8125 32.421875 27.15625 19.671875 
Q 24.515625 10.6875 23.78125 0 
L 14.75 0 
Q 14.890625 8.453125 18.0625 20.40625 
Q 21.234375 32.375 27.171875 43.484375 
Q 33.109375 54.59375 39.796875 62.203125 
z
" id="ArialMT-37"/>
      </defs>
      <g style="fill:#262626;" transform="translate(51.518125 133.18208)scale(0.2 -0.2)">
       <use xlink:href="#ArialMT-30"/>
       <use x="55.615234" xlink:href="#ArialMT-2e"/>
       <use x="83.398438" xlink:href="#ArialMT-37"/>
       <use x="139.013672" xlink:href="#ArialMT-35"/>
      </g>
     </g>
    </g>
    <g id="ytick_5">
     <g id="line2d_11"/>
     <g id="text_12">
      <!-- 1.00 -->
      <g style="fill:#262626;" transform="translate(51.518125 34.321642)scale(0.2 -0.2)">
       <use xlink:href="#ArialMT-31"/>
       <use x="55.615234" xlink:href="#ArialMT-2e"/>
       <use x="83.398438" xlink:href="#ArialMT-30"/>
       <use x="139.013672" xlink:href="#ArialMT-30"/>
      </g>
     </g>
    </g>
    <g id="text_13">
     <!-- P(Right Item) -->
     <defs>
      <path d="M 7.71875 0 
L 7.71875 71.578125 
L 34.71875 71.578125 
Q 41.84375 71.578125 45.609375 70.90625 
Q 50.875 70.015625 54.4375 67.546875 
Q 58.015625 65.09375 60.1875 60.640625 
Q 62.359375 56.203125 62.359375 50.875 
Q 62.359375 41.75 56.546875 35.421875 
Q 50.734375 29.109375 35.546875 29.109375 
L 17.1875 29.109375 
L 17.1875 0 
z
M 17.1875 37.546875 
L 35.6875 37.546875 
Q 44.875 37.546875 48.734375 40.96875 
Q 52.59375 44.390625 52.59375 50.59375 
Q 52.59375 55.078125 50.3125 58.265625 
Q 48.046875 61.46875 44.34375 62.5 
Q 41.9375 63.140625 35.5 63.140625 
L 17.1875 63.140625 
z
" id="ArialMT-50"/>
      <path d="M 7.859375 0 
L 7.859375 71.578125 
L 39.59375 71.578125 
Q 49.171875 71.578125 54.140625 69.640625 
Q 59.125 67.71875 62.109375 62.828125 
Q 65.09375 57.953125 65.09375 52.046875 
Q 65.09375 44.4375 60.15625 39.203125 
Q 55.21875 33.984375 44.921875 32.5625 
Q 48.6875 30.765625 50.640625 29 
Q 54.78125 25.203125 58.5 19.484375 
L 70.953125 0 
L 59.03125 0 
L 49.5625 14.890625 
Q 45.40625 21.34375 42.71875 24.75 
Q 40.046875 28.171875 37.921875 29.53125 
Q 35.796875 30.90625 33.59375 31.453125 
Q 31.984375 31.78125 28.328125 31.78125 
L 17.328125 31.78125 
L 17.328125 0 
z
M 17.328125 39.984375 
L 37.703125 39.984375 
Q 44.1875 39.984375 47.84375 41.328125 
Q 51.515625 42.671875 53.421875 45.625 
Q 55.328125 48.578125 55.328125 52.046875 
Q 55.328125 57.125 51.640625 60.390625 
Q 47.953125 63.671875 39.984375 63.671875 
L 17.328125 63.671875 
z
" id="ArialMT-52"/>
      <path d="M 4.984375 -4.296875 
L 13.53125 -5.5625 
Q 14.0625 -9.515625 16.5 -11.328125 
Q 19.78125 -13.765625 25.4375 -13.765625 
Q 31.546875 -13.765625 34.859375 -11.328125 
Q 38.1875 -8.890625 39.359375 -4.5 
Q 40.046875 -1.8125 39.984375 6.78125 
Q 34.234375 0 25.640625 0 
Q 14.9375 0 9.078125 7.71875 
Q 3.21875 15.4375 3.21875 26.21875 
Q 3.21875 33.640625 5.90625 39.90625 
Q 8.59375 46.1875 13.6875 49.609375 
Q 18.796875 53.03125 25.6875 53.03125 
Q 34.859375 53.03125 40.828125 45.609375 
L 40.828125 51.859375 
L 48.921875 51.859375 
L 48.921875 7.03125 
Q 48.921875 -5.078125 46.453125 -10.125 
Q 44 -15.1875 38.640625 -18.109375 
Q 33.296875 -21.046875 25.484375 -21.046875 
Q 16.21875 -21.046875 10.5 -16.875 
Q 4.78125 -12.703125 4.984375 -4.296875 
z
M 12.25 26.859375 
Q 12.25 16.65625 16.296875 11.96875 
Q 20.359375 7.28125 26.46875 7.28125 
Q 32.515625 7.28125 36.609375 11.9375 
Q 40.71875 16.609375 40.71875 26.5625 
Q 40.71875 36.078125 36.5 40.90625 
Q 32.28125 45.75 26.3125 45.75 
Q 20.453125 45.75 16.34375 40.984375 
Q 12.25 36.234375 12.25 26.859375 
z
" id="ArialMT-67"/>
      <path d="M 6.59375 0 
L 6.59375 71.578125 
L 15.375 71.578125 
L 15.375 45.90625 
Q 21.53125 53.03125 30.90625 53.03125 
Q 36.671875 53.03125 40.921875 50.75 
Q 45.171875 48.484375 47 44.484375 
Q 48.828125 40.484375 48.828125 32.859375 
L 48.828125 0 
L 40.046875 0 
L 40.046875 32.859375 
Q 40.046875 39.453125 37.1875 42.453125 
Q 34.328125 45.453125 29.109375 45.453125 
Q 25.203125 45.453125 21.75 43.421875 
Q 18.3125 41.40625 16.84375 37.9375 
Q 15.375 34.46875 15.375 28.375 
L 15.375 0 
z
" id="ArialMT-68"/>
      <path d="M 9.328125 0 
L 9.328125 71.578125 
L 18.796875 71.578125 
L 18.796875 0 
z
" id="ArialMT-49"/>
      <path d="M 6.59375 0 
L 6.59375 51.859375 
L 14.453125 51.859375 
L 14.453125 44.578125 
Q 16.890625 48.390625 20.9375 50.703125 
Q 25 53.03125 30.171875 53.03125 
Q 35.9375 53.03125 39.625 50.640625 
Q 43.3125 48.25 44.828125 43.953125 
Q 50.984375 53.03125 60.84375 53.03125 
Q 68.5625 53.03125 72.703125 48.75 
Q 76.859375 44.484375 76.859375 35.59375 
L 76.859375 0 
L 68.109375 0 
L 68.109375 32.671875 
Q 68.109375 37.9375 67.25 40.25 
Q 66.40625 42.578125 64.15625 43.984375 
Q 61.921875 45.40625 58.890625 45.40625 
Q 53.421875 45.40625 49.796875 41.765625 
Q 46.1875 38.140625 46.1875 30.125 
L 46.1875 0 
L 37.40625 0 
L 37.40625 33.6875 
Q 37.40625 39.546875 35.25 42.46875 
Q 33.109375 45.40625 28.21875 45.40625 
Q 24.515625 45.40625 21.359375 43.453125 
Q 18.21875 41.5 16.796875 37.734375 
Q 15.375 33.984375 15.375 26.90625 
L 15.375 0 
z
" id="ArialMT-6d"/>
     </defs>
     <g style="fill:#262626;" transform="translate(41.204063 313.232362)rotate(-90)scale(0.3 -0.3)">
      <use xlink:href="#ArialMT-50"/>
      <use x="66.699219" xlink:href="#ArialMT-28"/>
      <use x="100" xlink:href="#ArialMT-52"/>
      <use x="172.216797" xlink:href="#ArialMT-69"/>
      <use x="194.433594" xlink:href="#ArialMT-67"/>
      <use x="250.048828" xlink:href="#ArialMT-68"/>
      <use x="305.664062" xlink:href="#ArialMT-74"/>
      <use x="333.447266" xlink:href="#ArialMT-20"/>
      <use x="361.230469" xlink:href="#ArialMT-49"/>
      <use x="389.013672" xlink:href="#ArialMT-74"/>
      <use x="416.796875" xlink:href="#ArialMT-65"/>
      <use x="472.412109" xlink:href="#ArialMT-6d"/>
      <use x="555.712891" xlink:href="#ArialMT-29"/>
     </g>
    </g>
   </g>
   <g id="PathCollection_1">
    <defs>
     <path d="M -0 5.477226 
L 5.477226 0 
L 0 -5.477226 
L -5.477226 -0 
z
" id="m73a022d257" style="stroke:#f2cecf;stroke-width:0.3;"/>
    </defs>
    <g clip-path="url(#p2c3626a73d)">
     <use style="fill:#f2cecf;stroke:#f2cecf;stroke-width:0.3;" x="267.883905" xlink:href="#m73a022d257" y="149.00264"/>
     <use style="fill:#f2cecf;stroke:#f2cecf;stroke-width:0.3;" x="306.604621" xlink:href="#m73a022d257" y="232.638466"/>
     <use style="fill:#f2cecf;stroke:#f2cecf;stroke-width:0.3;" x="343.8828" xlink:href="#m73a022d257" y="308.03091"/>
     <use style="fill:#f2cecf;stroke:#f2cecf;stroke-width:0.3;" x="383.742359" xlink:href="#m73a022d257" y="376.212975"/>
    </g>
   </g>
   <g id="PathCollection_2">
    <defs>
     <path d="M 0 3.872983 
C 1.027127 3.872983 2.012324 3.464901 2.738613 2.738613 
C 3.464901 2.012324 3.872983 1.027127 3.872983 0 
C 3.872983 -1.027127 3.464901 -2.012324 2.738613 -2.738613 
C 2.012324 -3.464901 1.027127 -3.872983 0 -3.872983 
C -1.027127 -3.872983 -2.012324 -3.464901 -2.738613 -2.738613 
C -3.464901 -2.012324 -3.872983 -1.027127 -3.872983 0 
C -3.872983 1.027127 -3.464901 2.012324 -2.738613 2.738613 
C -2.012324 3.464901 -1.027127 3.872983 0 3.872983 
z
" id="mbae88bb7fc" style="stroke:#ac5255;stroke-width:0.3;"/>
    </defs>
    <g clip-path="url(#p2c3626a73d)">
     <use style="fill:#ac5255;stroke:#ac5255;stroke-width:0.3;" x="267.883905" xlink:href="#mbae88bb7fc" y="92.087102"/>
     <use style="fill:#ac5255;stroke:#ac5255;stroke-width:0.3;" x="306.604621" xlink:href="#mbae88bb7fc" y="228.982548"/>
     <use style="fill:#ac5255;stroke:#ac5255;stroke-width:0.3;" x="343.8828" xlink:href="#mbae88bb7fc" y="363.326838"/>
     <use style="fill:#ac5255;stroke:#ac5255;stroke-width:0.3;" x="383.742359" xlink:href="#mbae88bb7fc" y="405.70008"/>
    </g>
   </g>
   <g id="patch_3">
    <path d="M 97.44 426.56 
L 97.44 23.209412 
" style="fill:none;stroke:#262626;stroke-linecap:square;stroke-linejoin:miter;stroke-width:1.25;"/>
   </g>
   <g id="patch_4">
    <path d="M 97.44 426.56 
L 550.9975 426.56 
" style="fill:none;stroke:#262626;stroke-linecap:square;stroke-linejoin:miter;stroke-width:1.25;"/>
   </g>
   <g id="LineCollection_1">
    <path clip-path="url(#p2c3626a73d)" d="M 267.883905 156.456793 
L 267.883905 141.548486 
" style="fill:none;stroke:#f2cecf;stroke-width:1.75;"/>
    <path clip-path="url(#p2c3626a73d)" d="M 306.604621 243.908668 
L 306.604621 221.368263 
" style="fill:none;stroke:#f2cecf;stroke-width:1.75;"/>
    <path clip-path="url(#p2c3626a73d)" d="M 343.8828 319.686383 
L 343.8828 296.375436 
" style="fill:none;stroke:#f2cecf;stroke-width:1.75;"/>
    <path clip-path="url(#p2c3626a73d)" d="M 383.742359 383.365446 
L 383.742359 369.060503 
" style="fill:none;stroke:#f2cecf;stroke-width:1.75;"/>
   </g>
   <g id="line2d_12">
    <defs>
     <path d="M 0 3.5 
C 0.928211 3.5 1.81853 3.131218 2.474874 2.474874 
C 3.131218 1.81853 3.5 0.928211 3.5 0 
C 3.5 -0.928211 3.131218 -1.81853 2.474874 -2.474874 
C 1.81853 -3.131218 0.928211 -3.5 0 -3.5 
C -0.928211 -3.5 -1.81853 -3.131218 -2.474874 -2.474874 
C -3.131218 -1.81853 -3.5 -0.928211 -3.5 0 
C -3.5 0.928211 -3.131218 1.81853 -2.474874 2.474874 
C -1.81853 3.131218 -0.928211 3.5 0 3.5 
z
" id="m372f74c515"/>
    </defs>
    <g clip-path="url(#p2c3626a73d)">
     <use style="fill:#f2cecf;" x="267.883905" xlink:href="#m372f74c515" y="149.00264"/>
     <use style="fill:#f2cecf;" x="306.604621" xlink:href="#m372f74c515" y="232.638466"/>
     <use style="fill:#f2cecf;" x="343.8828" xlink:href="#m372f74c515" y="308.03091"/>
     <use style="fill:#f2cecf;" x="383.742359" xlink:href="#m372f74c515" y="376.212975"/>
    </g>
   </g>
   <g id="LineCollection_2">
    <path clip-path="url(#p2c3626a73d)" d="M 267.883905 102.115693 
L 267.883905 82.058511 
" style="fill:none;stroke:#ac5255;stroke-width:1.75;"/>
    <path clip-path="url(#p2c3626a73d)" d="M 306.604621 245.822984 
L 306.604621 212.142112 
" style="fill:none;stroke:#ac5255;stroke-width:1.75;"/>
    <path clip-path="url(#p2c3626a73d)" d="M 343.8828 371.440512 
L 343.8828 355.213164 
" style="fill:none;stroke:#ac5255;stroke-width:1.75;"/>
    <path clip-path="url(#p2c3626a73d)" d="M 383.742359 412.147297 
L 383.742359 399.252863 
" style="fill:none;stroke:#ac5255;stroke-width:1.75;"/>
   </g>
   <g id="line2d_13">
    <defs>
     <path d="M 0 3.5 
C 0.928211 3.5 1.81853 3.131218 2.474874 2.474874 
C 3.131218 1.81853 3.5 0.928211 3.5 0 
C 3.5 -0.928211 3.131218 -1.81853 2.474874 -2.474874 
C 1.81853 -3.131218 0.928211 -3.5 0 -3.5 
C -0.928211 -3.5 -1.81853 -3.131218 -2.474874 -2.474874 
C -3.131218 -1.81853 -3.5 -0.928211 -3.5 0 
C -3.5 0.928211 -3.131218 1.81853 -2.474874 2.474874 
C -1.81853 3.131218 -0.928211 3.5 0 3.5 
z
" id="m9d078e9585"/>
    </defs>
    <g clip-path="url(#p2c3626a73d)">
     <use style="fill:#ac5255;" x="267.883905" xlink:href="#m9d078e9585" y="92.087102"/>
     <use style="fill:#ac5255;" x="306.604621" xlink:href="#m9d078e9585" y="228.982548"/>
     <use style="fill:#ac5255;" x="343.8828" xlink:href="#m9d078e9585" y="363.326838"/>
     <use style="fill:#ac5255;" x="383.742359" xlink:href="#m9d078e9585" y="405.70008"/>
    </g>
   </g>
   <g id="line2d_14">
    <path clip-path="url(#p2c3626a73d)" d="M 97.44 29.597969 
L 108.81686 30.379929 
L 120.193721 31.410378 
L 129.295209 32.464654 
L 138.396697 33.776245 
L 145.222814 34.964649 
L 152.04893 36.361583 
L 158.875046 38.00168 
L 165.701162 39.924569 
L 170.251906 41.385617 
L 174.802651 43.007023 
L 179.353395 44.80473 
L 183.904139 46.79587 
L 188.454883 48.998763 
L 193.005627 51.432877 
L 197.556371 54.118765 
L 202.107115 57.077946 
L 206.65786 60.332752 
L 211.208604 63.906099 
L 215.759348 67.821205 
L 220.310092 72.101226 
L 224.860836 76.76881 
L 229.41158 81.845574 
L 233.962324 87.35149 
L 238.513069 93.304191 
L 243.063813 99.718217 
L 247.614557 106.604198 
L 252.165301 113.968017 
L 256.716045 121.809988 
L 261.266789 130.124074 
L 265.817533 138.897209 
L 270.368278 148.108772 
L 274.919022 157.730261 
L 281.745138 172.849229 
L 288.571254 188.651541 
L 297.672742 210.452933 
L 318.151091 259.97829 
L 324.977207 275.822152 
L 331.803324 290.995023 
L 336.354068 300.658031 
L 340.904812 309.914607 
L 345.455556 318.735403 
L 350.0063 327.098973 
L 354.557044 334.991471 
L 359.107788 342.406145 
L 363.658533 349.342667 
L 368.209277 355.806371 
L 372.760021 361.807422 
L 377.310765 367.359982 
L 381.861509 372.481396 
L 386.412253 377.191419 
L 390.962997 381.511525 
L 395.513742 385.46428 
L 400.064486 389.072807 
L 404.61523 392.360336 
L 409.165974 395.349831 
L 413.716718 398.063696 
L 418.267462 400.523548 
L 422.818207 402.750045 
L 427.368951 404.762777 
L 431.919695 406.580186 
L 436.470439 408.219532 
L 443.296555 410.379511 
L 450.122671 412.224017 
L 456.948788 413.796646 
L 463.774904 415.13567 
L 470.60102 416.274485 
L 479.702508 417.531005 
L 488.803997 418.540751 
L 500.180857 419.527452 
L 511.557717 420.276066 
L 525.20995 420.939184 
L 541.137554 421.478943 
L 561.615903 421.924895 
L 577 422.139416 
L 577 422.139416 
" style="fill:none;stroke:#f2cecf;stroke-dasharray:18.5,8;stroke-dashoffset:0;stroke-width:5;"/>
   </g>
   <g id="legend_1">
    <g id="line2d_15">
     <path d="M 329.135 48.768787 
L 369.135 48.768787 
" style="fill:none;stroke:#ac5255;stroke-dasharray:18.5,8;stroke-dashoffset:0;stroke-width:5;"/>
    </g>
    <g id="line2d_16"/>
    <g id="text_14">
     <!-- High Confidence -->
     <defs>
      <path d="M 8.015625 0 
L 8.015625 71.578125 
L 17.484375 71.578125 
L 17.484375 42.1875 
L 54.6875 42.1875 
L 54.6875 71.578125 
L 64.15625 71.578125 
L 64.15625 0 
L 54.6875 0 
L 54.6875 33.734375 
L 17.484375 33.734375 
L 17.484375 0 
z
" id="ArialMT-48"/>
      <path d="M 58.796875 25.09375 
L 68.265625 22.703125 
Q 65.28125 11.03125 57.546875 4.90625 
Q 49.8125 -1.21875 38.625 -1.21875 
Q 27.046875 -1.21875 19.796875 3.484375 
Q 12.546875 8.203125 8.765625 17.140625 
Q 4.984375 26.078125 4.984375 36.328125 
Q 4.984375 47.515625 9.25 55.828125 
Q 13.53125 64.15625 21.40625 68.46875 
Q 29.296875 72.796875 38.765625 72.796875 
Q 49.515625 72.796875 56.828125 67.328125 
Q 64.15625 61.859375 67.046875 51.953125 
L 57.71875 49.75 
Q 55.21875 57.5625 50.484375 61.125 
Q 45.75 64.703125 38.578125 64.703125 
Q 30.328125 64.703125 24.78125 60.734375 
Q 19.234375 56.78125 16.984375 50.109375 
Q 14.75 43.453125 14.75 36.375 
Q 14.75 27.25 17.40625 20.4375 
Q 20.0625 13.625 25.671875 10.25 
Q 31.296875 6.890625 37.84375 6.890625 
Q 45.796875 6.890625 51.3125 11.46875 
Q 56.84375 16.0625 58.796875 25.09375 
z
" id="ArialMT-43"/>
      <path d="M 40.234375 0 
L 40.234375 6.546875 
Q 35.296875 -1.171875 25.734375 -1.171875 
Q 19.53125 -1.171875 14.328125 2.25 
Q 9.125 5.671875 6.265625 11.796875 
Q 3.421875 17.921875 3.421875 25.875 
Q 3.421875 33.640625 6 39.96875 
Q 8.59375 46.296875 13.765625 49.65625 
Q 18.953125 53.03125 25.34375 53.03125 
Q 30.03125 53.03125 33.6875 51.046875 
Q 37.359375 49.078125 39.65625 45.90625 
L 39.65625 71.578125 
L 48.390625 71.578125 
L 48.390625 0 
z
M 12.453125 25.875 
Q 12.453125 15.921875 16.640625 10.984375 
Q 20.84375 6.0625 26.5625 6.0625 
Q 32.328125 6.0625 36.34375 10.765625 
Q 40.375 15.484375 40.375 25.140625 
Q 40.375 35.796875 36.265625 40.765625 
Q 32.171875 45.75 26.171875 45.75 
Q 20.3125 45.75 16.375 40.96875 
Q 12.453125 36.1875 12.453125 25.875 
z
" id="ArialMT-64"/>
     </defs>
     <g style="fill:#262626;" transform="translate(385.135 55.768787)scale(0.2 -0.2)">
      <use xlink:href="#ArialMT-48"/>
      <use x="72.216797" xlink:href="#ArialMT-69"/>
      <use x="94.433594" xlink:href="#ArialMT-67"/>
      <use x="150.048828" xlink:href="#ArialMT-68"/>
      <use x="205.664062" xlink:href="#ArialMT-20"/>
      <use x="233.447266" xlink:href="#ArialMT-43"/>
      <use x="305.664062" xlink:href="#ArialMT-6f"/>
      <use x="361.279297" xlink:href="#ArialMT-6e"/>
      <use x="416.894531" xlink:href="#ArialMT-66"/>
      <use x="444.677734" xlink:href="#ArialMT-69"/>
      <use x="466.894531" xlink:href="#ArialMT-64"/>
      <use x="522.509766" xlink:href="#ArialMT-65"/>
      <use x="578.125" xlink:href="#ArialMT-6e"/>
      <use x="633.740234" xlink:href="#ArialMT-63"/>
      <use x="683.740234" xlink:href="#ArialMT-65"/>
     </g>
    </g>
    <g id="line2d_17">
     <path d="M 329.135 77.293787 
L 369.135 77.293787 
" style="fill:none;stroke:#f2cecf;stroke-dasharray:18.5,8;stroke-dashoffset:0;stroke-width:5;"/>
    </g>
    <g id="line2d_18"/>
    <g id="text_15">
     <!-- Low Confidence -->
     <defs>
      <path d="M 7.328125 0 
L 7.328125 71.578125 
L 16.796875 71.578125 
L 16.796875 8.453125 
L 52.046875 8.453125 
L 52.046875 0 
z
" id="ArialMT-4c"/>
      <path d="M 16.15625 0 
L 0.296875 51.859375 
L 9.375 51.859375 
L 17.625 21.921875 
L 20.703125 10.796875 
Q 20.90625 11.625 23.390625 21.484375 
L 31.640625 51.859375 
L 40.671875 51.859375 
L 48.4375 21.78125 
L 51.03125 11.859375 
L 54 21.875 
L 62.890625 51.859375 
L 71.4375 51.859375 
L 55.21875 0 
L 46.09375 0 
L 37.84375 31.0625 
L 35.84375 39.890625 
L 25.34375 0 
z
" id="ArialMT-77"/>
     </defs>
     <g style="fill:#262626;" transform="translate(385.135 84.293787)scale(0.2 -0.2)">
      <use xlink:href="#ArialMT-4c"/>
      <use x="55.615234" xlink:href="#ArialMT-6f"/>
      <use x="111.230469" xlink:href="#ArialMT-77"/>
      <use x="183.447266" xlink:href="#ArialMT-20"/>
      <use x="211.230469" xlink:href="#ArialMT-43"/>
      <use x="283.447266" xlink:href="#ArialMT-6f"/>
      <use x="339.0625" xlink:href="#ArialMT-6e"/>
      <use x="394.677734" xlink:href="#ArialMT-66"/>
      <use x="422.460938" xlink:href="#ArialMT-69"/>
      <use x="444.677734" xlink:href="#ArialMT-64"/>
      <use x="500.292969" xlink:href="#ArialMT-65"/>
      <use x="555.908203" xlink:href="#ArialMT-6e"/>
      <use x="611.523438" xlink:href="#ArialMT-63"/>
      <use x="661.523438" xlink:href="#ArialMT-65"/>
     </g>
    </g>
   </g>
   <g id="line2d_19">
    <path clip-path="url(#p2c3626a73d)" d="M 97.44 27.201515 
L 136.121325 27.373137 
L 156.599674 27.68233 
L 170.251906 28.112564 
L 179.353395 28.582472 
L 188.454883 29.283875 
L 195.280999 30.027727 
L 202.107115 31.030005 
L 206.65786 31.883986 
L 211.208604 32.923822 
L 215.759348 34.188614 
L 220.310092 35.725029 
L 224.860836 37.588461 
L 229.41158 39.844193 
L 233.962324 42.568502 
L 236.237696 44.133441 
L 238.513069 45.849542 
L 240.788441 47.729759 
L 243.063813 49.787808 
L 245.339185 52.038142 
L 247.614557 54.4959 
L 249.889929 57.176833 
L 252.165301 60.097206 
L 254.440673 63.273662 
L 256.716045 66.723057 
L 258.991417 70.462252 
L 261.266789 74.507862 
L 263.542161 78.875966 
L 265.817533 83.581766 
L 268.092906 88.639206 
L 270.368278 94.06055 
L 272.64365 99.855923 
L 274.919022 106.032836 
L 277.194394 112.595689 
L 279.469766 119.545287 
L 281.745138 126.878375 
L 286.295882 142.659283 
L 290.846626 159.817394 
L 295.39737 178.149742 
L 299.948115 197.374607 
L 318.151091 275.806143 
L 322.701835 293.897808 
L 327.252579 310.762764 
L 331.803324 326.216429 
L 334.078696 333.378751 
L 336.354068 340.155598 
L 338.62944 346.545586 
L 340.904812 352.551184 
L 343.180184 358.178246 
L 345.455556 363.43551 
L 347.730928 368.334117 
L 350.0063 372.887137 
L 352.281672 377.109125 
L 354.557044 381.015721 
L 356.832416 384.623281 
L 359.107788 387.948565 
L 361.383161 391.00846 
L 363.658533 393.819749 
L 365.933905 396.398926 
L 368.209277 398.762039 
L 370.484649 400.924578 
L 372.760021 402.90138 
L 375.035393 404.706576 
L 377.310765 406.353543 
L 379.586137 407.854886 
L 384.136881 410.467234 
L 388.687625 412.629059 
L 393.23837 414.414094 
L 397.789114 415.885313 
L 402.339858 417.096055 
L 406.890602 418.0912 
L 411.441346 418.908303 
L 418.267462 419.867103 
L 425.093579 420.578548 
L 434.195067 421.249284 
L 443.296555 421.698589 
L 456.948788 422.109918 
L 475.151764 422.384274 
L 502.456229 422.5396 
L 563.891275 422.601251 
L 577 422.603158 
L 577 422.603158 
" style="fill:none;stroke:#ac5255;stroke-dasharray:18.5,8;stroke-dashoffset:0;stroke-width:5;"/>
   </g>
  </g>
 </g>
 <defs>
  <clipPath id="p2c3626a73d">
   <rect height="403.350588" width="453.5575" x="97.44" y="23.209412"/>
  </clipPath>
 </defs>
</svg>
