<?xml version="1.0" encoding="utf-8" standalone="no"?>
<!DOCTYPE svg PUBLIC "-//W3C//DTD SVG 1.1//EN"
  "http://www.w3.org/Graphics/SVG/1.1/DTD/svg11.dtd">
<!-- Created with matplotlib (http://matplotlib.org/) -->
<svg height="720pt" version="1.1" viewBox="0 0 432 720" width="432pt" xmlns="http://www.w3.org/2000/svg" xmlns:xlink="http://www.w3.org/1999/xlink">
 <defs>
  <style type="text/css">
*{stroke-linecap:butt;stroke-linejoin:round;}
  </style>
 </defs>
 <g id="figure_1">
  <g id="patch_1">
   <path d="M 0 720 
L 432 720 
L 432 0 
L 0 0 
z
" style="fill:#ffffff;"/>
  </g>
  <g id="axes_1">
   <g id="patch_2">
    <path d="M 54 630 
L 388.8 630 
L 388.8 86.4 
L 54 86.4 
z
" style="fill:#ffffff;"/>
   </g>
   <g id="matplotlib.axis_1">
    <g id="xtick_1">
     <g id="text_1">
      <!-- Most -->
      <defs>
       <path d="M 7.421875 0 
L 7.421875 71.578125 
L 21.6875 71.578125 
L 38.625 20.90625 
Q 40.96875 13.8125 42.046875 10.296875 
Q 43.265625 14.203125 45.84375 21.78125 
L 62.984375 71.578125 
L 75.734375 71.578125 
L 75.734375 0 
L 66.609375 0 
L 66.609375 59.90625 
L 45.796875 0 
L 37.25 0 
L 16.546875 60.9375 
L 16.546875 0 
z
" id="ArialMT-4d"/>
       <path d="M 3.328125 25.921875 
Q 3.328125 40.328125 11.328125 47.265625 
Q 18.015625 53.03125 27.640625 53.03125 
Q 38.328125 53.03125 45.109375 46.015625 
Q 51.90625 39.015625 51.90625 26.65625 
Q 51.90625 16.65625 48.90625 10.90625 
Q 45.90625 5.171875 40.15625 2 
Q 34.421875 -1.171875 27.640625 -1.171875 
Q 16.75 -1.171875 10.03125 5.8125 
Q 3.328125 12.796875 3.328125 25.921875 
z
M 12.359375 25.921875 
Q 12.359375 15.96875 16.703125 11.015625 
Q 21.046875 6.0625 27.640625 6.0625 
Q 34.1875 6.0625 38.53125 11.03125 
Q 42.875 16.015625 42.875 26.21875 
Q 42.875 35.84375 38.5 40.796875 
Q 34.125 45.75 27.640625 45.75 
Q 21.046875 45.75 16.703125 40.8125 
Q 12.359375 35.890625 12.359375 25.921875 
z
" id="ArialMT-6f"/>
       <path d="M 3.078125 15.484375 
L 11.765625 16.84375 
Q 12.5 11.625 15.84375 8.84375 
Q 19.1875 6.0625 25.203125 6.0625 
Q 31.25 6.0625 34.171875 8.515625 
Q 37.109375 10.984375 37.109375 14.3125 
Q 37.109375 17.28125 34.515625 19 
Q 32.71875 20.171875 25.53125 21.96875 
Q 15.875 24.421875 12.140625 26.203125 
Q 8.40625 27.984375 6.46875 31.125 
Q 4.546875 34.28125 4.546875 38.09375 
Q 4.546875 41.546875 6.125 44.5 
Q 7.71875 47.46875 10.453125 49.421875 
Q 12.5 50.921875 16.03125 51.96875 
Q 19.578125 53.03125 23.640625 53.03125 
Q 29.734375 53.03125 34.34375 51.265625 
Q 38.96875 49.515625 41.15625 46.5 
Q 43.359375 43.5 44.1875 38.484375 
L 35.59375 37.3125 
Q 35.015625 41.3125 32.203125 43.546875 
Q 29.390625 45.796875 24.265625 45.796875 
Q 18.21875 45.796875 15.625 43.796875 
Q 13.03125 41.796875 13.03125 39.109375 
Q 13.03125 37.40625 14.109375 36.03125 
Q 15.1875 34.625 17.484375 33.6875 
Q 18.796875 33.203125 25.25 31.453125 
Q 34.578125 28.953125 38.25 27.359375 
Q 41.9375 25.78125 44.03125 22.75 
Q 46.140625 19.734375 46.140625 15.234375 
Q 46.140625 10.84375 43.578125 6.953125 
Q 41.015625 3.078125 36.171875 0.953125 
Q 31.34375 -1.171875 25.25 -1.171875 
Q 15.140625 -1.171875 9.84375 3.03125 
Q 4.546875 7.234375 3.078125 15.484375 
z
" id="ArialMT-73"/>
       <path d="M 25.78125 7.859375 
L 27.046875 0.09375 
Q 23.34375 -0.6875 20.40625 -0.6875 
Q 15.625 -0.6875 12.984375 0.828125 
Q 10.359375 2.34375 9.28125 4.8125 
Q 8.203125 7.28125 8.203125 15.1875 
L 8.203125 45.015625 
L 1.765625 45.015625 
L 1.765625 51.859375 
L 8.203125 51.859375 
L 8.203125 64.703125 
L 16.9375 69.96875 
L 16.9375 51.859375 
L 25.78125 51.859375 
L 25.78125 45.015625 
L 16.9375 45.015625 
L 16.9375 14.703125 
Q 16.9375 10.9375 17.40625 9.859375 
Q 17.875 8.796875 18.921875 8.15625 
Q 19.96875 7.515625 21.921875 7.515625 
Q 23.390625 7.515625 25.78125 7.859375 
z
" id="ArialMT-74"/>
      </defs>
      <g style="fill:#262626;" transform="translate(106.994887 652.384063)scale(0.18 -0.18)">
       <use xlink:href="#ArialMT-4d"/>
       <use x="83.300781" xlink:href="#ArialMT-6f"/>
       <use x="138.916016" xlink:href="#ArialMT-73"/>
       <use x="188.916016" xlink:href="#ArialMT-74"/>
      </g>
     </g>
    </g>
    <g id="xtick_2">
     <g id="text_2">
      <!-- Few -->
      <defs>
       <path d="M 8.203125 0 
L 8.203125 71.578125 
L 56.5 71.578125 
L 56.5 63.140625 
L 17.671875 63.140625 
L 17.671875 40.96875 
L 51.265625 40.96875 
L 51.265625 32.515625 
L 17.671875 32.515625 
L 17.671875 0 
z
" id="ArialMT-46"/>
       <path d="M 42.09375 16.703125 
L 51.171875 15.578125 
Q 49.03125 7.625 43.21875 3.21875 
Q 37.40625 -1.171875 28.375 -1.171875 
Q 17 -1.171875 10.328125 5.828125 
Q 3.65625 12.84375 3.65625 25.484375 
Q 3.65625 38.578125 10.390625 45.796875 
Q 17.140625 53.03125 27.875 53.03125 
Q 38.28125 53.03125 44.875 45.953125 
Q 51.46875 38.875 51.46875 26.03125 
Q 51.46875 25.25 51.421875 23.6875 
L 12.75 23.6875 
Q 13.234375 15.140625 17.578125 10.59375 
Q 21.921875 6.0625 28.421875 6.0625 
Q 33.25 6.0625 36.671875 8.59375 
Q 40.09375 11.140625 42.09375 16.703125 
z
M 13.234375 30.90625 
L 42.1875 30.90625 
Q 41.609375 37.453125 38.875 40.71875 
Q 34.671875 45.796875 27.984375 45.796875 
Q 21.921875 45.796875 17.796875 41.75 
Q 13.671875 37.703125 13.234375 30.90625 
z
" id="ArialMT-65"/>
       <path d="M 16.15625 0 
L 0.296875 51.859375 
L 9.375 51.859375 
L 17.625 21.921875 
L 20.703125 10.796875 
Q 20.90625 11.625 23.390625 21.484375 
L 31.640625 51.859375 
L 40.671875 51.859375 
L 48.4375 21.78125 
L 51.03125 11.859375 
L 54 21.875 
L 62.890625 51.859375 
L 71.4375 51.859375 
L 55.21875 0 
L 46.09375 0 
L 37.84375 31.0625 
L 35.84375 39.890625 
L 25.34375 0 
z
" id="ArialMT-77"/>
      </defs>
      <g style="fill:#262626;" transform="translate(299.905013 652.384063)scale(0.18 -0.18)">
       <use xlink:href="#ArialMT-46"/>
       <use x="61.083984" xlink:href="#ArialMT-65"/>
       <use x="116.699219" xlink:href="#ArialMT-77"/>
      </g>
     </g>
    </g>
   </g>
   <g id="matplotlib.axis_2">
    <g id="ytick_1">
     <g id="text_3">
      <!-- −2 -->
      <defs>
       <path d="M 52.828125 31.203125 
L 5.5625 31.203125 
L 5.5625 39.40625 
L 52.828125 39.40625 
z
" id="ArialMT-2212"/>
       <path d="M 50.34375 8.453125 
L 50.34375 0 
L 3.03125 0 
Q 2.9375 3.171875 4.046875 6.109375 
Q 5.859375 10.9375 9.828125 15.625 
Q 13.8125 20.3125 21.34375 26.46875 
Q 33.015625 36.03125 37.109375 41.625 
Q 41.21875 47.21875 41.21875 52.203125 
Q 41.21875 57.421875 37.46875 61 
Q 33.734375 64.59375 27.734375 64.59375 
Q 21.390625 64.59375 17.578125 60.78125 
Q 13.765625 56.984375 13.71875 50.25 
L 4.6875 51.171875 
Q 5.609375 61.28125 11.65625 66.578125 
Q 17.71875 71.875 27.9375 71.875 
Q 38.234375 71.875 44.234375 66.15625 
Q 50.25 60.453125 50.25 52 
Q 50.25 47.703125 48.484375 43.546875 
Q 46.734375 39.40625 42.65625 34.8125 
Q 38.578125 30.21875 29.109375 22.21875 
Q 21.1875 15.578125 18.9375 13.203125 
Q 16.703125 10.84375 15.234375 8.453125 
z
" id="ArialMT-32"/>
      </defs>
      <g style="fill:#262626;" transform="translate(25.687422 579.682051)scale(0.165 -0.165)">
       <use xlink:href="#ArialMT-2212"/>
       <use x="58.398438" xlink:href="#ArialMT-32"/>
      </g>
     </g>
    </g>
    <g id="ytick_2">
     <g id="text_4">
      <!-- −1 -->
      <defs>
       <path d="M 37.25 0 
L 28.46875 0 
L 28.46875 56 
Q 25.296875 52.984375 20.140625 49.953125 
Q 14.984375 46.921875 10.890625 45.40625 
L 10.890625 53.90625 
Q 18.265625 57.375 23.78125 62.296875 
Q 29.296875 67.234375 31.59375 71.875 
L 37.25 71.875 
z
" id="ArialMT-31"/>
      </defs>
      <g style="fill:#262626;" transform="translate(25.687422 483.668017)scale(0.165 -0.165)">
       <use xlink:href="#ArialMT-2212"/>
       <use x="58.398438" xlink:href="#ArialMT-31"/>
      </g>
     </g>
    </g>
    <g id="ytick_3">
     <g id="text_5">
      <!-- 0 -->
      <defs>
       <path d="M 4.15625 35.296875 
Q 4.15625 48 6.765625 55.734375 
Q 9.375 63.484375 14.515625 67.671875 
Q 19.671875 71.875 27.484375 71.875 
Q 33.25 71.875 37.59375 69.546875 
Q 41.9375 67.234375 44.765625 62.859375 
Q 47.609375 58.5 49.21875 52.21875 
Q 50.828125 45.953125 50.828125 35.296875 
Q 50.828125 22.703125 48.234375 14.96875 
Q 45.65625 7.234375 40.5 3 
Q 35.359375 -1.21875 27.484375 -1.21875 
Q 17.140625 -1.21875 11.234375 6.203125 
Q 4.15625 15.140625 4.15625 35.296875 
z
M 13.1875 35.296875 
Q 13.1875 17.671875 17.3125 11.828125 
Q 21.4375 6 27.484375 6 
Q 33.546875 6 37.671875 11.859375 
Q 41.796875 17.71875 41.796875 35.296875 
Q 41.796875 52.984375 37.671875 58.78125 
Q 33.546875 64.59375 27.390625 64.59375 
Q 21.34375 64.59375 17.71875 59.46875 
Q 13.1875 52.9375 13.1875 35.296875 
z
" id="ArialMT-30"/>
      </defs>
      <g style="fill:#262626;" transform="translate(35.324453 387.653982)scale(0.165 -0.165)">
       <use xlink:href="#ArialMT-30"/>
      </g>
     </g>
    </g>
    <g id="ytick_4">
     <g id="text_6">
      <!-- 1 -->
      <g style="fill:#262626;" transform="translate(35.324453 291.639948)scale(0.165 -0.165)">
       <use xlink:href="#ArialMT-31"/>
      </g>
     </g>
    </g>
    <g id="ytick_5">
     <g id="text_7">
      <!-- 2 -->
      <g style="fill:#262626;" transform="translate(35.324453 195.625913)scale(0.165 -0.165)">
       <use xlink:href="#ArialMT-32"/>
      </g>
     </g>
    </g>
    <g id="ytick_6">
     <g id="text_8">
      <!-- 3 -->
      <defs>
       <path d="M 4.203125 18.890625 
L 12.984375 20.0625 
Q 14.5 12.59375 18.140625 9.296875 
Q 21.78125 6 27 6 
Q 33.203125 6 37.46875 10.296875 
Q 41.75 14.59375 41.75 20.953125 
Q 41.75 27 37.796875 30.921875 
Q 33.84375 34.859375 27.734375 34.859375 
Q 25.25 34.859375 21.53125 33.890625 
L 22.515625 41.609375 
Q 23.390625 41.5 23.921875 41.5 
Q 29.546875 41.5 34.03125 44.421875 
Q 38.53125 47.359375 38.53125 53.46875 
Q 38.53125 58.296875 35.25 61.46875 
Q 31.984375 64.65625 26.8125 64.65625 
Q 21.6875 64.65625 18.265625 61.421875 
Q 14.84375 58.203125 13.875 51.765625 
L 5.078125 53.328125 
Q 6.6875 62.15625 12.390625 67.015625 
Q 18.109375 71.875 26.609375 71.875 
Q 32.46875 71.875 37.390625 69.359375 
Q 42.328125 66.84375 44.9375 62.5 
Q 47.5625 58.15625 47.5625 53.265625 
Q 47.5625 48.640625 45.0625 44.828125 
Q 42.578125 41.015625 37.703125 38.765625 
Q 44.046875 37.3125 47.5625 32.6875 
Q 51.078125 28.078125 51.078125 21.140625 
Q 51.078125 11.765625 44.234375 5.25 
Q 37.40625 -1.265625 26.953125 -1.265625 
Q 17.53125 -1.265625 11.296875 4.34375 
Q 5.078125 9.96875 4.203125 18.890625 
z
" id="ArialMT-33"/>
      </defs>
      <g style="fill:#262626;" transform="translate(35.324453 99.611879)scale(0.165 -0.165)">
       <use xlink:href="#ArialMT-33"/>
      </g>
     </g>
    </g>
    <g id="text_9">
     <!-- Choice Logistic Slopes -->
     <defs>
      <path d="M 58.796875 25.09375 
L 68.265625 22.703125 
Q 65.28125 11.03125 57.546875 4.90625 
Q 49.8125 -1.21875 38.625 -1.21875 
Q 27.046875 -1.21875 19.796875 3.484375 
Q 12.546875 8.203125 8.765625 17.140625 
Q 4.984375 26.078125 4.984375 36.328125 
Q 4.984375 47.515625 9.25 55.828125 
Q 13.53125 64.15625 21.40625 68.46875 
Q 29.296875 72.796875 38.765625 72.796875 
Q 49.515625 72.796875 56.828125 67.328125 
Q 64.15625 61.859375 67.046875 51.953125 
L 57.71875 49.75 
Q 55.21875 57.5625 50.484375 61.125 
Q 45.75 64.703125 38.578125 64.703125 
Q 30.328125 64.703125 24.78125 60.734375 
Q 19.234375 56.78125 16.984375 50.109375 
Q 14.75 43.453125 14.75 36.375 
Q 14.75 27.25 17.40625 20.4375 
Q 20.0625 13.625 25.671875 10.25 
Q 31.296875 6.890625 37.84375 6.890625 
Q 45.796875 6.890625 51.3125 11.46875 
Q 56.84375 16.0625 58.796875 25.09375 
z
" id="ArialMT-43"/>
      <path d="M 6.59375 0 
L 6.59375 71.578125 
L 15.375 71.578125 
L 15.375 45.90625 
Q 21.53125 53.03125 30.90625 53.03125 
Q 36.671875 53.03125 40.921875 50.75 
Q 45.171875 48.484375 47 44.484375 
Q 48.828125 40.484375 48.828125 32.859375 
L 48.828125 0 
L 40.046875 0 
L 40.046875 32.859375 
Q 40.046875 39.453125 37.1875 42.453125 
Q 34.328125 45.453125 29.109375 45.453125 
Q 25.203125 45.453125 21.75 43.421875 
Q 18.3125 41.40625 16.84375 37.9375 
Q 15.375 34.46875 15.375 28.375 
L 15.375 0 
z
" id="ArialMT-68"/>
      <path d="M 6.640625 61.46875 
L 6.640625 71.578125 
L 15.4375 71.578125 
L 15.4375 61.46875 
z
M 6.640625 0 
L 6.640625 51.859375 
L 15.4375 51.859375 
L 15.4375 0 
z
" id="ArialMT-69"/>
      <path d="M 40.4375 19 
L 49.078125 17.875 
Q 47.65625 8.9375 41.8125 3.875 
Q 35.984375 -1.171875 27.484375 -1.171875 
Q 16.84375 -1.171875 10.375 5.78125 
Q 3.90625 12.75 3.90625 25.734375 
Q 3.90625 34.125 6.6875 40.421875 
Q 9.46875 46.734375 15.15625 49.875 
Q 20.84375 53.03125 27.546875 53.03125 
Q 35.984375 53.03125 41.359375 48.75 
Q 46.734375 44.484375 48.25 36.625 
L 39.703125 35.296875 
Q 38.484375 40.53125 35.375 43.15625 
Q 32.28125 45.796875 27.875 45.796875 
Q 21.234375 45.796875 17.078125 41.03125 
Q 12.9375 36.28125 12.9375 25.984375 
Q 12.9375 15.53125 16.9375 10.796875 
Q 20.953125 6.0625 27.390625 6.0625 
Q 32.5625 6.0625 36.03125 9.234375 
Q 39.5 12.40625 40.4375 19 
z
" id="ArialMT-63"/>
      <path id="ArialMT-20"/>
      <path d="M 7.328125 0 
L 7.328125 71.578125 
L 16.796875 71.578125 
L 16.796875 8.453125 
L 52.046875 8.453125 
L 52.046875 0 
z
" id="ArialMT-4c"/>
      <path d="M 4.984375 -4.296875 
L 13.53125 -5.5625 
Q 14.0625 -9.515625 16.5 -11.328125 
Q 19.78125 -13.765625 25.4375 -13.765625 
Q 31.546875 -13.765625 34.859375 -11.328125 
Q 38.1875 -8.890625 39.359375 -4.5 
Q 40.046875 -1.8125 39.984375 6.78125 
Q 34.234375 0 25.640625 0 
Q 14.9375 0 9.078125 7.71875 
Q 3.21875 15.4375 3.21875 26.21875 
Q 3.21875 33.640625 5.90625 39.90625 
Q 8.59375 46.1875 13.6875 49.609375 
Q 18.796875 53.03125 25.6875 53.03125 
Q 34.859375 53.03125 40.828125 45.609375 
L 40.828125 51.859375 
L 48.921875 51.859375 
L 48.921875 7.03125 
Q 48.921875 -5.078125 46.453125 -10.125 
Q 44 -15.1875 38.640625 -18.109375 
Q 33.296875 -21.046875 25.484375 -21.046875 
Q 16.21875 -21.046875 10.5 -16.875 
Q 4.78125 -12.703125 4.984375 -4.296875 
z
M 12.25 26.859375 
Q 12.25 16.65625 16.296875 11.96875 
Q 20.359375 7.28125 26.46875 7.28125 
Q 32.515625 7.28125 36.609375 11.9375 
Q 40.71875 16.609375 40.71875 26.5625 
Q 40.71875 36.078125 36.5 40.90625 
Q 32.28125 45.75 26.3125 45.75 
Q 20.453125 45.75 16.34375 40.984375 
Q 12.25 36.234375 12.25 26.859375 
z
" id="ArialMT-67"/>
      <path d="M 4.5 23 
L 13.421875 23.78125 
Q 14.0625 18.40625 16.375 14.96875 
Q 18.703125 11.53125 23.578125 9.40625 
Q 28.46875 7.28125 34.578125 7.28125 
Q 39.984375 7.28125 44.140625 8.890625 
Q 48.296875 10.5 50.3125 13.296875 
Q 52.34375 16.109375 52.34375 19.4375 
Q 52.34375 22.796875 50.390625 25.3125 
Q 48.4375 27.828125 43.953125 29.546875 
Q 41.0625 30.671875 31.203125 33.03125 
Q 21.34375 35.40625 17.390625 37.5 
Q 12.25 40.1875 9.734375 44.15625 
Q 7.234375 48.140625 7.234375 53.078125 
Q 7.234375 58.5 10.296875 63.203125 
Q 13.375 67.921875 19.28125 70.359375 
Q 25.203125 72.796875 32.421875 72.796875 
Q 40.375 72.796875 46.453125 70.234375 
Q 52.546875 67.671875 55.8125 62.6875 
Q 59.078125 57.71875 59.328125 51.421875 
L 50.25 50.734375 
Q 49.515625 57.515625 45.28125 60.984375 
Q 41.0625 64.453125 32.8125 64.453125 
Q 24.21875 64.453125 20.28125 61.296875 
Q 16.359375 58.15625 16.359375 53.71875 
Q 16.359375 49.859375 19.140625 47.359375 
Q 21.875 44.875 33.421875 42.265625 
Q 44.96875 39.65625 49.265625 37.703125 
Q 55.515625 34.8125 58.484375 30.390625 
Q 61.46875 25.984375 61.46875 20.21875 
Q 61.46875 14.5 58.203125 9.4375 
Q 54.9375 4.390625 48.796875 1.578125 
Q 42.671875 -1.21875 35.015625 -1.21875 
Q 25.296875 -1.21875 18.71875 1.609375 
Q 12.15625 4.4375 8.421875 10.125 
Q 4.6875 15.828125 4.5 23 
z
" id="ArialMT-53"/>
      <path d="M 6.390625 0 
L 6.390625 71.578125 
L 15.1875 71.578125 
L 15.1875 0 
z
" id="ArialMT-6c"/>
      <path d="M 6.59375 -19.875 
L 6.59375 51.859375 
L 14.59375 51.859375 
L 14.59375 45.125 
Q 17.4375 49.078125 21 51.046875 
Q 24.5625 53.03125 29.640625 53.03125 
Q 36.28125 53.03125 41.359375 49.609375 
Q 46.4375 46.1875 49.015625 39.953125 
Q 51.609375 33.734375 51.609375 26.3125 
Q 51.609375 18.359375 48.75 11.984375 
Q 45.90625 5.609375 40.453125 2.21875 
Q 35.015625 -1.171875 29 -1.171875 
Q 24.609375 -1.171875 21.109375 0.6875 
Q 17.625 2.546875 15.375 5.375 
L 15.375 -19.875 
z
M 14.546875 25.640625 
Q 14.546875 15.625 18.59375 10.84375 
Q 22.65625 6.0625 28.421875 6.0625 
Q 34.28125 6.0625 38.453125 11.015625 
Q 42.625 15.96875 42.625 26.375 
Q 42.625 36.28125 38.546875 41.203125 
Q 34.46875 46.140625 28.8125 46.140625 
Q 23.1875 46.140625 18.859375 40.890625 
Q 14.546875 35.640625 14.546875 25.640625 
z
" id="ArialMT-70"/>
     </defs>
     <g style="fill:#262626;" transform="translate(17.898984 449.24625)rotate(-90)scale(0.18 -0.18)">
      <use xlink:href="#ArialMT-43"/>
      <use x="72.216797" xlink:href="#ArialMT-68"/>
      <use x="127.832031" xlink:href="#ArialMT-6f"/>
      <use x="183.447266" xlink:href="#ArialMT-69"/>
      <use x="205.664062" xlink:href="#ArialMT-63"/>
      <use x="255.664062" xlink:href="#ArialMT-65"/>
      <use x="311.279297" xlink:href="#ArialMT-20"/>
      <use x="339.0625" xlink:href="#ArialMT-4c"/>
      <use x="394.677734" xlink:href="#ArialMT-6f"/>
      <use x="450.292969" xlink:href="#ArialMT-67"/>
      <use x="505.908203" xlink:href="#ArialMT-69"/>
      <use x="528.125" xlink:href="#ArialMT-73"/>
      <use x="578.125" xlink:href="#ArialMT-74"/>
      <use x="605.908203" xlink:href="#ArialMT-69"/>
      <use x="628.125" xlink:href="#ArialMT-63"/>
      <use x="678.125" xlink:href="#ArialMT-20"/>
      <use x="705.908203" xlink:href="#ArialMT-53"/>
      <use x="772.607422" xlink:href="#ArialMT-6c"/>
      <use x="794.824219" xlink:href="#ArialMT-6f"/>
      <use x="850.439453" xlink:href="#ArialMT-70"/>
      <use x="906.054688" xlink:href="#ArialMT-65"/>
      <use x="961.669922" xlink:href="#ArialMT-73"/>
     </g>
    </g>
   </g>
   <g id="PathCollection_1">
    <defs>
     <path d="M 0 3 
C 0.795609 3 1.55874 2.683901 2.12132 2.12132 
C 2.683901 1.55874 3 0.795609 3 0 
C 3 -0.795609 2.683901 -1.55874 2.12132 -2.12132 
C 1.55874 -2.683901 0.795609 -3 0 -3 
C -0.795609 -3 -1.55874 -2.683901 -2.12132 -2.12132 
C -2.683901 -1.55874 -3 -0.795609 -3 0 
C -3 0.795609 -2.683901 1.55874 -2.12132 2.12132 
C -1.55874 2.683901 -0.795609 3 0 3 
z
" id="m09c7b4f485" style="stroke:#4f6a9a;stroke-opacity:0.7;"/>
    </defs>
    <g clip-path="url(#pa5bd302483)">
     <use style="fill:#4f6a9a;fill-opacity:0.7;stroke:#4f6a9a;stroke-opacity:0.7;" x="109.495885" xlink:href="#m09c7b4f485" y="206.844731"/>
     <use style="fill:#4f6a9a;fill-opacity:0.7;stroke:#4f6a9a;stroke-opacity:0.7;" x="75.766161" xlink:href="#m09c7b4f485" y="207.526066"/>
     <use style="fill:#4f6a9a;fill-opacity:0.7;stroke:#4f6a9a;stroke-opacity:0.7;" x="114.762595" xlink:href="#m09c7b4f485" y="239.264327"/>
     <use style="fill:#4f6a9a;fill-opacity:0.7;stroke:#4f6a9a;stroke-opacity:0.7;" x="146.208498" xlink:href="#m09c7b4f485" y="156.293209"/>
     <use style="fill:#4f6a9a;fill-opacity:0.7;stroke:#4f6a9a;stroke-opacity:0.7;" x="182.043115" xlink:href="#m09c7b4f485" y="190.827864"/>
     <use style="fill:#4f6a9a;fill-opacity:0.7;stroke:#4f6a9a;stroke-opacity:0.7;" x="106.487801" xlink:href="#m09c7b4f485" y="226.66525"/>
     <use style="fill:#4f6a9a;fill-opacity:0.7;stroke:#4f6a9a;stroke-opacity:0.7;" x="105.294349" xlink:href="#m09c7b4f485" y="245.610084"/>
     <use style="fill:#4f6a9a;fill-opacity:0.7;stroke:#4f6a9a;stroke-opacity:0.7;" x="163.609364" xlink:href="#m09c7b4f485" y="282.382877"/>
     <use style="fill:#4f6a9a;fill-opacity:0.7;stroke:#4f6a9a;stroke-opacity:0.7;" x="72.861751" xlink:href="#m09c7b4f485" y="283.201401"/>
     <use style="fill:#4f6a9a;fill-opacity:0.7;stroke:#4f6a9a;stroke-opacity:0.7;" x="88.762227" xlink:href="#m09c7b4f485" y="196.140437"/>
     <use style="fill:#4f6a9a;fill-opacity:0.7;stroke:#4f6a9a;stroke-opacity:0.7;" x="70.924363" xlink:href="#m09c7b4f485" y="270.201531"/>
     <use style="fill:#4f6a9a;fill-opacity:0.7;stroke:#4f6a9a;stroke-opacity:0.7;" x="78.653449" xlink:href="#m09c7b4f485" y="244.368289"/>
     <use style="fill:#4f6a9a;fill-opacity:0.7;stroke:#4f6a9a;stroke-opacity:0.7;" x="176.053675" xlink:href="#m09c7b4f485" y="257.769135"/>
     <use style="fill:#4f6a9a;fill-opacity:0.7;stroke:#4f6a9a;stroke-opacity:0.7;" x="92.65853" xlink:href="#m09c7b4f485" y="137.286053"/>
     <use style="fill:#4f6a9a;fill-opacity:0.7;stroke:#4f6a9a;stroke-opacity:0.7;" x="84.31579" xlink:href="#m09c7b4f485" y="240.416759"/>
     <use style="fill:#4f6a9a;fill-opacity:0.7;stroke:#4f6a9a;stroke-opacity:0.7;" x="72.072763" xlink:href="#m09c7b4f485" y="243.480817"/>
     <use style="fill:#4f6a9a;fill-opacity:0.7;stroke:#4f6a9a;stroke-opacity:0.7;" x="71.713031" xlink:href="#m09c7b4f485" y="210.025952"/>
     <use style="fill:#4f6a9a;fill-opacity:0.7;stroke:#4f6a9a;stroke-opacity:0.7;" x="118.172018" xlink:href="#m09c7b4f485" y="117.089648"/>
     <use style="fill:#4f6a9a;fill-opacity:0.7;stroke:#4f6a9a;stroke-opacity:0.7;" x="123.319101" xlink:href="#m09c7b4f485" y="185.121572"/>
     <use style="fill:#4f6a9a;fill-opacity:0.7;stroke:#4f6a9a;stroke-opacity:0.7;" x="92.303633" xlink:href="#m09c7b4f485" y="165.678431"/>
     <use style="fill:#4f6a9a;fill-opacity:0.7;stroke:#4f6a9a;stroke-opacity:0.7;" x="96.211969" xlink:href="#m09c7b4f485" y="189.794809"/>
     <use style="fill:#4f6a9a;fill-opacity:0.7;stroke:#4f6a9a;stroke-opacity:0.7;" x="83.917393" xlink:href="#m09c7b4f485" y="301.23376"/>
     <use style="fill:#4f6a9a;fill-opacity:0.7;stroke:#4f6a9a;stroke-opacity:0.7;" x="98.998158" xlink:href="#m09c7b4f485" y="166.344968"/>
     <use style="fill:#4f6a9a;fill-opacity:0.7;stroke:#4f6a9a;stroke-opacity:0.7;" x="112.779624" xlink:href="#m09c7b4f485" y="185.338543"/>
     <use style="fill:#4f6a9a;fill-opacity:0.7;stroke:#4f6a9a;stroke-opacity:0.7;" x="150.3554" xlink:href="#m09c7b4f485" y="111.63897"/>
     <use style="fill:#4f6a9a;fill-opacity:0.7;stroke:#4f6a9a;stroke-opacity:0.7;" x="159.713659" xlink:href="#m09c7b4f485" y="272.080156"/>
     <use style="fill:#4f6a9a;fill-opacity:0.7;stroke:#4f6a9a;stroke-opacity:0.7;" x="105.166249" xlink:href="#m09c7b4f485" y="283.579424"/>
     <use style="fill:#4f6a9a;fill-opacity:0.7;stroke:#4f6a9a;stroke-opacity:0.7;" x="97.602038" xlink:href="#m09c7b4f485" y="241.359041"/>
     <use style="fill:#4f6a9a;fill-opacity:0.7;stroke:#4f6a9a;stroke-opacity:0.7;" x="178.462368" xlink:href="#m09c7b4f485" y="144.143892"/>
     <use style="fill:#4f6a9a;fill-opacity:0.7;stroke:#4f6a9a;stroke-opacity:0.7;" x="113.877944" xlink:href="#m09c7b4f485" y="118.202826"/>
     <use style="fill:#4f6a9a;fill-opacity:0.7;stroke:#4f6a9a;stroke-opacity:0.7;" x="158.013885" xlink:href="#m09c7b4f485" y="220.364727"/>
     <use style="fill:#4f6a9a;fill-opacity:0.7;stroke:#4f6a9a;stroke-opacity:0.7;" x="135.26434" xlink:href="#m09c7b4f485" y="236.413788"/>
    </g>
   </g>
   <g id="PathCollection_2">
    <defs>
     <path d="M 0 3 
C 0.795609 3 1.55874 2.683901 2.12132 2.12132 
C 2.683901 1.55874 3 0.795609 3 0 
C 3 -0.795609 2.683901 -1.55874 2.12132 -2.12132 
C 1.55874 -2.683901 0.795609 -3 0 -3 
C -0.795609 -3 -1.55874 -2.683901 -2.12132 -2.12132 
C -2.683901 -1.55874 -3 -0.795609 -3 0 
C -3 0.795609 -2.683901 1.55874 -2.12132 2.12132 
C -1.55874 2.683901 -0.795609 3 0 3 
z
" id="m7426f008bf" style="stroke:#ac5255;stroke-opacity:0.7;"/>
    </defs>
    <g clip-path="url(#pa5bd302483)">
     <use style="fill:#ac5255;fill-opacity:0.7;stroke:#ac5255;stroke-opacity:0.7;" x="299.905698" xlink:href="#m7426f008bf" y="531.274211"/>
     <use style="fill:#ac5255;fill-opacity:0.7;stroke:#ac5255;stroke-opacity:0.7;" x="266.175974" xlink:href="#m7426f008bf" y="576.773102"/>
     <use style="fill:#ac5255;fill-opacity:0.7;stroke:#ac5255;stroke-opacity:0.7;" x="305.172408" xlink:href="#m7426f008bf" y="518.494168"/>
     <use style="fill:#ac5255;fill-opacity:0.7;stroke:#ac5255;stroke-opacity:0.7;" x="336.618311" xlink:href="#m7426f008bf" y="563.67057"/>
     <use style="fill:#ac5255;fill-opacity:0.7;stroke:#ac5255;stroke-opacity:0.7;" x="372.452927" xlink:href="#m7426f008bf" y="442.476703"/>
     <use style="fill:#ac5255;fill-opacity:0.7;stroke:#ac5255;stroke-opacity:0.7;" x="296.897613" xlink:href="#m7426f008bf" y="556.655894"/>
     <use style="fill:#ac5255;fill-opacity:0.7;stroke:#ac5255;stroke-opacity:0.7;" x="295.704162" xlink:href="#m7426f008bf" y="561.283122"/>
     <use style="fill:#ac5255;fill-opacity:0.7;stroke:#ac5255;stroke-opacity:0.7;" x="354.019176" xlink:href="#m7426f008bf" y="538.078071"/>
     <use style="fill:#ac5255;fill-opacity:0.7;stroke:#ac5255;stroke-opacity:0.7;" x="263.271564" xlink:href="#m7426f008bf" y="472.290149"/>
     <use style="fill:#ac5255;fill-opacity:0.7;stroke:#ac5255;stroke-opacity:0.7;" x="279.17204" xlink:href="#m7426f008bf" y="602.117262"/>
     <use style="fill:#ac5255;fill-opacity:0.7;stroke:#ac5255;stroke-opacity:0.7;" x="261.334176" xlink:href="#m7426f008bf" y="545.403072"/>
     <use style="fill:#ac5255;fill-opacity:0.7;stroke:#ac5255;stroke-opacity:0.7;" x="269.063261" xlink:href="#m7426f008bf" y="498.479954"/>
     <use style="fill:#ac5255;fill-opacity:0.7;stroke:#ac5255;stroke-opacity:0.7;" x="366.463488" xlink:href="#m7426f008bf" y="513.980958"/>
     <use style="fill:#ac5255;fill-opacity:0.7;stroke:#ac5255;stroke-opacity:0.7;" x="283.068343" xlink:href="#m7426f008bf" y="592.793294"/>
     <use style="fill:#ac5255;fill-opacity:0.7;stroke:#ac5255;stroke-opacity:0.7;" x="274.725602" xlink:href="#m7426f008bf" y="558.889354"/>
     <use style="fill:#ac5255;fill-opacity:0.7;stroke:#ac5255;stroke-opacity:0.7;" x="262.482576" xlink:href="#m7426f008bf" y="535.399894"/>
     <use style="fill:#ac5255;fill-opacity:0.7;stroke:#ac5255;stroke-opacity:0.7;" x="262.122844" xlink:href="#m7426f008bf" y="551.641193"/>
     <use style="fill:#ac5255;fill-opacity:0.7;stroke:#ac5255;stroke-opacity:0.7;" x="308.58183" xlink:href="#m7426f008bf" y="600.709098"/>
     <use style="fill:#ac5255;fill-opacity:0.7;stroke:#ac5255;stroke-opacity:0.7;" x="313.728913" xlink:href="#m7426f008bf" y="584.238547"/>
     <use style="fill:#ac5255;fill-opacity:0.7;stroke:#ac5255;stroke-opacity:0.7;" x="282.713446" xlink:href="#m7426f008bf" y="526.878062"/>
     <use style="fill:#ac5255;fill-opacity:0.7;stroke:#ac5255;stroke-opacity:0.7;" x="286.621782" xlink:href="#m7426f008bf" y="604.133514"/>
     <use style="fill:#ac5255;fill-opacity:0.7;stroke:#ac5255;stroke-opacity:0.7;" x="274.327206" xlink:href="#m7426f008bf" y="483.294029"/>
     <use style="fill:#ac5255;fill-opacity:0.7;stroke:#ac5255;stroke-opacity:0.7;" x="289.407971" xlink:href="#m7426f008bf" y="515.560362"/>
     <use style="fill:#ac5255;fill-opacity:0.7;stroke:#ac5255;stroke-opacity:0.7;" x="303.189437" xlink:href="#m7426f008bf" y="564.248327"/>
     <use style="fill:#ac5255;fill-opacity:0.7;stroke:#ac5255;stroke-opacity:0.7;" x="340.765212" xlink:href="#m7426f008bf" y="571.037111"/>
     <use style="fill:#ac5255;fill-opacity:0.7;stroke:#ac5255;stroke-opacity:0.7;" x="350.123472" xlink:href="#m7426f008bf" y="473.08275"/>
     <use style="fill:#ac5255;fill-opacity:0.7;stroke:#ac5255;stroke-opacity:0.7;" x="295.576062" xlink:href="#m7426f008bf" y="461.28923"/>
     <use style="fill:#ac5255;fill-opacity:0.7;stroke:#ac5255;stroke-opacity:0.7;" x="288.01185" xlink:href="#m7426f008bf" y="584.499845"/>
     <use style="fill:#ac5255;fill-opacity:0.7;stroke:#ac5255;stroke-opacity:0.7;" x="368.872181" xlink:href="#m7426f008bf" y="603.196655"/>
     <use style="fill:#ac5255;fill-opacity:0.7;stroke:#ac5255;stroke-opacity:0.7;" x="304.287756" xlink:href="#m7426f008bf" y="536.883518"/>
     <use style="fill:#ac5255;fill-opacity:0.7;stroke:#ac5255;stroke-opacity:0.7;" x="348.423697" xlink:href="#m7426f008bf" y="588.706964"/>
     <use style="fill:#ac5255;fill-opacity:0.7;stroke:#ac5255;stroke-opacity:0.7;" x="325.674152" xlink:href="#m7426f008bf" y="578.416118"/>
    </g>
   </g>
   <g id="line2d_1">
    <path clip-path="url(#pa5bd302483)" d="M 109.495885 206.844731 
L 299.905698 531.274211 
" style="fill:none;stroke:#000000;stroke-dasharray:3.7,1.6;stroke-dashoffset:0;stroke-opacity:0.2;"/>
   </g>
   <g id="line2d_2">
    <path clip-path="url(#pa5bd302483)" d="M 75.766161 207.526066 
L 266.175974 576.773102 
" style="fill:none;stroke:#000000;stroke-dasharray:3.7,1.6;stroke-dashoffset:0;stroke-opacity:0.2;"/>
   </g>
   <g id="line2d_3">
    <path clip-path="url(#pa5bd302483)" d="M 114.762595 239.264327 
L 305.172408 518.494168 
" style="fill:none;stroke:#000000;stroke-dasharray:3.7,1.6;stroke-dashoffset:0;stroke-opacity:0.2;"/>
   </g>
   <g id="line2d_4">
    <path clip-path="url(#pa5bd302483)" d="M 146.208498 156.293209 
L 336.618311 563.67057 
" style="fill:none;stroke:#000000;stroke-dasharray:3.7,1.6;stroke-dashoffset:0;stroke-opacity:0.2;"/>
   </g>
   <g id="line2d_5">
    <path clip-path="url(#pa5bd302483)" d="M 182.043115 190.827864 
L 372.452927 442.476703 
" style="fill:none;stroke:#000000;stroke-dasharray:3.7,1.6;stroke-dashoffset:0;stroke-opacity:0.2;"/>
   </g>
   <g id="line2d_6">
    <path clip-path="url(#pa5bd302483)" d="M 106.487801 226.66525 
L 296.897613 556.655894 
" style="fill:none;stroke:#000000;stroke-dasharray:3.7,1.6;stroke-dashoffset:0;stroke-opacity:0.2;"/>
   </g>
   <g id="line2d_7">
    <path clip-path="url(#pa5bd302483)" d="M 105.294349 245.610084 
L 295.704162 561.283122 
" style="fill:none;stroke:#000000;stroke-dasharray:3.7,1.6;stroke-dashoffset:0;stroke-opacity:0.2;"/>
   </g>
   <g id="line2d_8">
    <path clip-path="url(#pa5bd302483)" d="M 163.609364 282.382877 
L 354.019176 538.078071 
" style="fill:none;stroke:#000000;stroke-dasharray:3.7,1.6;stroke-dashoffset:0;stroke-opacity:0.2;"/>
   </g>
   <g id="line2d_9">
    <path clip-path="url(#pa5bd302483)" d="M 72.861751 283.201401 
L 263.271564 472.290149 
" style="fill:none;stroke:#000000;stroke-dasharray:3.7,1.6;stroke-dashoffset:0;stroke-opacity:0.2;"/>
   </g>
   <g id="line2d_10">
    <path clip-path="url(#pa5bd302483)" d="M 88.762227 196.140437 
L 279.17204 602.117262 
" style="fill:none;stroke:#000000;stroke-dasharray:3.7,1.6;stroke-dashoffset:0;stroke-opacity:0.2;"/>
   </g>
   <g id="line2d_11">
    <path clip-path="url(#pa5bd302483)" d="M 70.924363 270.201531 
L 261.334176 545.403072 
" style="fill:none;stroke:#000000;stroke-dasharray:3.7,1.6;stroke-dashoffset:0;stroke-opacity:0.2;"/>
   </g>
   <g id="line2d_12">
    <path clip-path="url(#pa5bd302483)" d="M 78.653449 244.368289 
L 269.063261 498.479954 
" style="fill:none;stroke:#000000;stroke-dasharray:3.7,1.6;stroke-dashoffset:0;stroke-opacity:0.2;"/>
   </g>
   <g id="line2d_13">
    <path clip-path="url(#pa5bd302483)" d="M 176.053675 257.769135 
L 366.463488 513.980958 
" style="fill:none;stroke:#000000;stroke-dasharray:3.7,1.6;stroke-dashoffset:0;stroke-opacity:0.2;"/>
   </g>
   <g id="line2d_14">
    <path clip-path="url(#pa5bd302483)" d="M 92.65853 137.286053 
L 283.068343 592.793294 
" style="fill:none;stroke:#000000;stroke-dasharray:3.7,1.6;stroke-dashoffset:0;stroke-opacity:0.2;"/>
   </g>
   <g id="line2d_15">
    <path clip-path="url(#pa5bd302483)" d="M 84.31579 240.416759 
L 274.725602 558.889354 
" style="fill:none;stroke:#000000;stroke-dasharray:3.7,1.6;stroke-dashoffset:0;stroke-opacity:0.2;"/>
   </g>
   <g id="line2d_16">
    <path clip-path="url(#pa5bd302483)" d="M 72.072763 243.480817 
L 262.482576 535.399894 
" style="fill:none;stroke:#000000;stroke-dasharray:3.7,1.6;stroke-dashoffset:0;stroke-opacity:0.2;"/>
   </g>
   <g id="line2d_17">
    <path clip-path="url(#pa5bd302483)" d="M 71.713031 210.025952 
L 262.122844 551.641193 
" style="fill:none;stroke:#000000;stroke-dasharray:3.7,1.6;stroke-dashoffset:0;stroke-opacity:0.2;"/>
   </g>
   <g id="line2d_18">
    <path clip-path="url(#pa5bd302483)" d="M 118.172018 117.089648 
L 308.58183 600.709098 
" style="fill:none;stroke:#000000;stroke-dasharray:3.7,1.6;stroke-dashoffset:0;stroke-opacity:0.2;"/>
   </g>
   <g id="line2d_19">
    <path clip-path="url(#pa5bd302483)" d="M 123.319101 185.121572 
L 313.728913 584.238547 
" style="fill:none;stroke:#000000;stroke-dasharray:3.7,1.6;stroke-dashoffset:0;stroke-opacity:0.2;"/>
   </g>
   <g id="line2d_20">
    <path clip-path="url(#pa5bd302483)" d="M 92.303633 165.678431 
L 282.713446 526.878062 
" style="fill:none;stroke:#000000;stroke-dasharray:3.7,1.6;stroke-dashoffset:0;stroke-opacity:0.2;"/>
   </g>
   <g id="line2d_21">
    <path clip-path="url(#pa5bd302483)" d="M 96.211969 189.794809 
L 286.621782 604.133514 
" style="fill:none;stroke:#000000;stroke-dasharray:3.7,1.6;stroke-dashoffset:0;stroke-opacity:0.2;"/>
   </g>
   <g id="line2d_22">
    <path clip-path="url(#pa5bd302483)" d="M 83.917393 301.23376 
L 274.327206 483.294029 
" style="fill:none;stroke:#000000;stroke-dasharray:3.7,1.6;stroke-dashoffset:0;stroke-opacity:0.2;"/>
   </g>
   <g id="line2d_23">
    <path clip-path="url(#pa5bd302483)" d="M 98.998158 166.344968 
L 289.407971 515.560362 
" style="fill:none;stroke:#000000;stroke-dasharray:3.7,1.6;stroke-dashoffset:0;stroke-opacity:0.2;"/>
   </g>
   <g id="line2d_24">
    <path clip-path="url(#pa5bd302483)" d="M 112.779624 185.338543 
L 303.189437 564.248327 
" style="fill:none;stroke:#000000;stroke-dasharray:3.7,1.6;stroke-dashoffset:0;stroke-opacity:0.2;"/>
   </g>
   <g id="line2d_25">
    <path clip-path="url(#pa5bd302483)" d="M 150.3554 111.63897 
L 340.765212 571.037111 
" style="fill:none;stroke:#000000;stroke-dasharray:3.7,1.6;stroke-dashoffset:0;stroke-opacity:0.2;"/>
   </g>
   <g id="line2d_26">
    <path clip-path="url(#pa5bd302483)" d="M 159.713659 272.080156 
L 350.123472 473.08275 
" style="fill:none;stroke:#000000;stroke-dasharray:3.7,1.6;stroke-dashoffset:0;stroke-opacity:0.2;"/>
   </g>
   <g id="line2d_27">
    <path clip-path="url(#pa5bd302483)" d="M 105.166249 283.579424 
L 295.576062 461.28923 
" style="fill:none;stroke:#000000;stroke-dasharray:3.7,1.6;stroke-dashoffset:0;stroke-opacity:0.2;"/>
   </g>
   <g id="line2d_28">
    <path clip-path="url(#pa5bd302483)" d="M 97.602038 241.359041 
L 288.01185 584.499845 
" style="fill:none;stroke:#000000;stroke-dasharray:3.7,1.6;stroke-dashoffset:0;stroke-opacity:0.2;"/>
   </g>
   <g id="line2d_29">
    <path clip-path="url(#pa5bd302483)" d="M 178.462368 144.143892 
L 368.872181 603.196655 
" style="fill:none;stroke:#000000;stroke-dasharray:3.7,1.6;stroke-dashoffset:0;stroke-opacity:0.2;"/>
   </g>
   <g id="line2d_30">
    <path clip-path="url(#pa5bd302483)" d="M 113.877944 118.202826 
L 304.287756 536.883518 
" style="fill:none;stroke:#000000;stroke-dasharray:3.7,1.6;stroke-dashoffset:0;stroke-opacity:0.2;"/>
   </g>
   <g id="line2d_31">
    <path clip-path="url(#pa5bd302483)" d="M 158.013885 220.364727 
L 348.423697 588.706964 
" style="fill:none;stroke:#000000;stroke-dasharray:3.7,1.6;stroke-dashoffset:0;stroke-opacity:0.2;"/>
   </g>
   <g id="line2d_32">
    <path clip-path="url(#pa5bd302483)" d="M 135.26434 236.413788 
L 325.674152 578.416118 
" style="fill:none;stroke:#000000;stroke-dasharray:3.7,1.6;stroke-dashoffset:0;stroke-opacity:0.2;"/>
   </g>
   <g id="patch_3">
    <path d="M 54 630 
L 54 86.4 
" style="fill:none;stroke:#262626;stroke-linecap:square;stroke-linejoin:miter;stroke-width:1.25;"/>
   </g>
   <g id="patch_4">
    <path d="M 54 630 
L 388.8 630 
" style="fill:none;stroke:#262626;stroke-linecap:square;stroke-linejoin:miter;stroke-width:1.25;"/>
   </g>
  </g>
 </g>
 <defs>
  <clipPath id="pa5bd302483">
   <rect height="543.6" width="334.8" x="54" y="86.4"/>
  </clipPath>
 </defs>
</svg>
